<?xml version="1.0" encoding="UTF-8" standalone="no"?>
<!DOCTYPE svg PUBLIC "-//W3C//DTD SVG 1.1//EN"
 "http://www.w3.org/Graphics/SVG/1.1/DTD/svg11.dtd">
<!-- Generated by graphviz version 2.49.0 (20210829.0051)
 -->
<!-- Title: snakemake_dag Pages: 1 -->
<svg width="2339pt" height="764pt"
 viewBox="0.00 0.00 2338.50 764.00" xmlns="http://www.w3.org/2000/svg" xmlns:xlink="http://www.w3.org/1999/xlink">
<g id="graph0" class="graph" transform="scale(1 1) rotate(0) translate(4 760)">
<title>snakemake_dag</title>
<polygon fill="white" stroke="transparent" points="-4,4 -4,-760 2334.5,-760 2334.5,4 -4,4"/>
<!-- 0 -->
<g id="node1" class="node">
<title>0</title>
<path fill="none" stroke="#b6d856" stroke-width="2" d="M943,-36C943,-36 913,-36 913,-36 907,-36 901,-30 901,-24 901,-24 901,-12 901,-12 901,-6 907,0 913,0 913,0 943,0 943,0 949,0 955,-6 955,-12 955,-12 955,-24 955,-24 955,-30 949,-36 943,-36"/>
<text text-anchor="middle" x="928" y="-15.5" font-family="sans" font-size="10.00">all</text>
</g>
<!-- 1 -->
<g id="node2" class="node">
<title>1</title>
<path fill="none" stroke="#78d856" stroke-width="2" d="M42,-108C42,-108 12,-108 12,-108 6,-108 0,-102 0,-96 0,-96 0,-84 0,-84 0,-78 6,-72 12,-72 12,-72 42,-72 42,-72 48,-72 54,-78 54,-84 54,-84 54,-96 54,-96 54,-102 48,-108 42,-108"/>
<text text-anchor="middle" x="27" y="-87.5" font-family="sans" font-size="10.00">fastqc</text>
</g>
<!-- 1&#45;&gt;0 -->
<g id="edge32" class="edge">
<title>1&#45;&gt;0</title>
<path fill="none" stroke="grey" stroke-width="2" d="M54.11,-74.89C57.06,-73.75 60.05,-72.76 63,-72 223.13,-30.91 745.72,-21.31 890.51,-19.42"/>
<polygon fill="grey" stroke="grey" stroke-width="2" points="890.71,-22.91 900.66,-19.29 890.62,-15.91 890.71,-22.91"/>
</g>
<!-- 2 -->
<g id="node3" class="node">
<title>2</title>
<path fill="none" stroke="#5692d8" stroke-width="2" d="M139.5,-108C139.5,-108 84.5,-108 84.5,-108 78.5,-108 72.5,-102 72.5,-96 72.5,-96 72.5,-84 72.5,-84 72.5,-78 78.5,-72 84.5,-72 84.5,-72 139.5,-72 139.5,-72 145.5,-72 151.5,-78 151.5,-84 151.5,-84 151.5,-96 151.5,-96 151.5,-102 145.5,-108 139.5,-108"/>
<text text-anchor="middle" x="112" y="-87.5" font-family="sans" font-size="10.00">fastq_screen</text>
</g>
<!-- 2&#45;&gt;0 -->
<g id="edge30" class="edge">
<title>2&#45;&gt;0</title>
<path fill="none" stroke="grey" stroke-width="2" d="M151.54,-75.39C156.37,-74.07 161.27,-72.9 166,-72 440.53,-19.99 779.35,-17.69 890.66,-18.51"/>
<polygon fill="grey" stroke="grey" stroke-width="2" points="890.68,-22.01 900.71,-18.59 890.74,-15.01 890.68,-22.01"/>
</g>
<!-- 3 -->
<g id="node4" class="node">
<title>3</title>
<path fill="none" stroke="#97d856" stroke-width="2" d="M623,-540C623,-540 593,-540 593,-540 587,-540 581,-534 581,-528 581,-528 581,-516 581,-516 581,-510 587,-504 593,-504 593,-504 623,-504 623,-504 629,-504 635,-510 635,-516 635,-516 635,-528 635,-528 635,-534 629,-540 623,-540"/>
<text text-anchor="middle" x="608" y="-519.5" font-family="sans" font-size="10.00">banlist</text>
</g>
<!-- 3&#45;&gt;0 -->
<g id="edge11" class="edge">
<title>3&#45;&gt;0</title>
<path fill="none" stroke="grey" stroke-width="2" d="M580.85,-521.4C498.67,-522.03 254.81,-519.44 199,-468 169.26,-440.59 180,-419.45 180,-379 180,-379 180,-379 180,-161 180,-117.07 186.69,-96.73 223,-72 278.43,-34.25 753.06,-22.33 890.72,-19.65"/>
<polygon fill="grey" stroke="grey" stroke-width="2" points="890.85,-23.15 900.78,-19.46 890.72,-16.15 890.85,-23.15"/>
</g>
<!-- 7 -->
<g id="node8" class="node">
<title>7</title>
<path fill="none" stroke="#d8ac56" stroke-width="2" d="M250,-468C250,-468 220,-468 220,-468 214,-468 208,-462 208,-456 208,-456 208,-444 208,-444 208,-438 214,-432 220,-432 220,-432 250,-432 250,-432 256,-432 262,-438 262,-444 262,-444 262,-456 262,-456 262,-462 256,-468 250,-468"/>
<text text-anchor="middle" x="235" y="-447.5" font-family="sans" font-size="10.00">tracks</text>
</g>
<!-- 3&#45;&gt;7 -->
<g id="edge37" class="edge">
<title>3&#45;&gt;7</title>
<path fill="none" stroke="grey" stroke-width="2" d="M580.76,-519.35C524.2,-515.38 390.12,-503.08 271.77,-467.75"/>
<polygon fill="grey" stroke="grey" stroke-width="2" points="272.78,-464.4 262.2,-464.83 270.74,-471.09 272.78,-464.4"/>
</g>
<!-- 8 -->
<g id="node9" class="node">
<title>8</title>
<path fill="none" stroke="#56d8b1" stroke-width="2" d="M363.5,-468C363.5,-468 292.5,-468 292.5,-468 286.5,-468 280.5,-462 280.5,-456 280.5,-456 280.5,-444 280.5,-444 280.5,-438 286.5,-432 292.5,-432 292.5,-432 363.5,-432 363.5,-432 369.5,-432 375.5,-438 375.5,-444 375.5,-444 375.5,-456 375.5,-456 375.5,-462 369.5,-468 363.5,-468"/>
<text text-anchor="middle" x="328" y="-447.5" font-family="sans" font-size="10.00">preseq_lcextrap</text>
</g>
<!-- 3&#45;&gt;8 -->
<g id="edge38" class="edge">
<title>3&#45;&gt;8</title>
<path fill="none" stroke="grey" stroke-width="2" d="M580.75,-514.64C539.42,-504.94 458.44,-485.7 390,-468 388.55,-467.62 387.08,-467.24 385.59,-466.85"/>
<polygon fill="grey" stroke="grey" stroke-width="2" points="386.25,-463.41 375.69,-464.23 384.46,-470.17 386.25,-463.41"/>
</g>
<!-- 9 -->
<g id="node10" class="node">
<title>9</title>
<path fill="none" stroke="#d8cb56" stroke-width="2" d="M390,-252C390,-252 334,-252 334,-252 328,-252 322,-246 322,-240 322,-240 322,-228 322,-228 322,-222 328,-216 334,-216 334,-216 390,-216 390,-216 396,-216 402,-222 402,-228 402,-228 402,-240 402,-240 402,-246 396,-252 390,-252"/>
<text text-anchor="middle" x="362" y="-231.5" font-family="sans" font-size="10.00">frip_gopeaks</text>
</g>
<!-- 3&#45;&gt;9 -->
<g id="edge39" class="edge">
<title>3&#45;&gt;9</title>
<path fill="none" stroke="grey" stroke-width="2" d="M580.75,-515.72C552.33,-508.98 507.94,-494.83 479,-468 416.05,-409.63 382.16,-309.86 368.82,-262.07"/>
<polygon fill="grey" stroke="grey" stroke-width="2" points="372.13,-260.91 366.14,-252.16 365.37,-262.73 372.13,-260.91"/>
</g>
<!-- 10 -->
<g id="node11" class="node">
<title>10</title>
<path fill="none" stroke="#80d856" stroke-width="2" d="M478,-324C478,-324 444,-324 444,-324 438,-324 432,-318 432,-312 432,-312 432,-300 432,-300 432,-294 438,-288 444,-288 444,-288 478,-288 478,-288 484,-288 490,-294 490,-300 490,-300 490,-312 490,-312 490,-318 484,-324 478,-324"/>
<text text-anchor="middle" x="461" y="-303.5" font-family="sans" font-size="10.00">gopeaks</text>
</g>
<!-- 3&#45;&gt;10 -->
<g id="edge42" class="edge">
<title>3&#45;&gt;10</title>
<path fill="none" stroke="grey" stroke-width="2" d="M580.97,-514.02C557.28,-506.51 523.63,-492.26 504,-468 472.47,-429.03 463.92,-369.07 461.69,-334.38"/>
<polygon fill="grey" stroke="grey" stroke-width="2" points="465.17,-333.87 461.17,-324.06 458.18,-334.22 465.17,-333.87"/>
</g>
<!-- 12 -->
<g id="node13" class="node">
<title>12</title>
<path fill="none" stroke="#d8d356" stroke-width="2" d="M588,-396C588,-396 558,-396 558,-396 552,-396 546,-390 546,-384 546,-384 546,-372 546,-372 546,-366 552,-360 558,-360 558,-360 588,-360 588,-360 594,-360 600,-366 600,-372 600,-372 600,-384 600,-384 600,-390 594,-396 588,-396"/>
<text text-anchor="middle" x="573" y="-375.5" font-family="sans" font-size="10.00">index</text>
</g>
<!-- 3&#45;&gt;12 -->
<g id="edge44" class="edge">
<title>3&#45;&gt;12</title>
<path fill="none" stroke="grey" stroke-width="2" d="M603.78,-503.87C597.79,-479.56 586.76,-434.82 579.66,-406.01"/>
<polygon fill="grey" stroke="grey" stroke-width="2" points="583.03,-405.06 577.24,-396.19 576.23,-406.74 583.03,-405.06"/>
</g>
<!-- 13 -->
<g id="node14" class="node">
<title>13</title>
<path fill="none" stroke="#56d88a" stroke-width="2" d="M517.5,-252C517.5,-252 470.5,-252 470.5,-252 464.5,-252 458.5,-246 458.5,-240 458.5,-240 458.5,-228 458.5,-228 458.5,-222 464.5,-216 470.5,-216 470.5,-216 517.5,-216 517.5,-216 523.5,-216 529.5,-222 529.5,-228 529.5,-228 529.5,-240 529.5,-240 529.5,-246 523.5,-252 517.5,-252"/>
<text text-anchor="middle" x="494" y="-231.5" font-family="sans" font-size="10.00">frip_macs2</text>
</g>
<!-- 3&#45;&gt;13 -->
<g id="edge46" class="edge">
<title>3&#45;&gt;13</title>
<path fill="none" stroke="grey" stroke-width="2" d="M596.41,-503.92C580.96,-480.49 553.65,-436.65 537,-396 518.48,-350.78 505.68,-295.14 499.11,-262.52"/>
<polygon fill="grey" stroke="grey" stroke-width="2" points="502.48,-261.53 497.13,-252.39 495.62,-262.88 502.48,-261.53"/>
</g>
<!-- 14 -->
<g id="node15" class="node">
<title>14</title>
<path fill="none" stroke="#68d856" stroke-width="2" d="M626,-324C626,-324 596,-324 596,-324 590,-324 584,-318 584,-312 584,-312 584,-300 584,-300 584,-294 590,-288 596,-288 596,-288 626,-288 626,-288 632,-288 638,-294 638,-300 638,-300 638,-312 638,-312 638,-318 632,-324 626,-324"/>
<text text-anchor="middle" x="611" y="-303.5" font-family="sans" font-size="10.00">macs2</text>
</g>
<!-- 3&#45;&gt;14 -->
<g id="edge47" class="edge">
<title>3&#45;&gt;14</title>
<path fill="none" stroke="grey" stroke-width="2" d="M608.24,-503.85C608.76,-466.83 609.99,-379.18 610.62,-334.39"/>
<polygon fill="grey" stroke="grey" stroke-width="2" points="614.12,-334.28 610.76,-324.23 607.12,-334.18 614.12,-334.28"/>
</g>
<!-- 15 -->
<g id="node16" class="node">
<title>15</title>
<path fill="none" stroke="#56d8a9" stroke-width="2" d="M842,-252C842,-252 760,-252 760,-252 754,-252 748,-246 748,-240 748,-240 748,-228 748,-228 748,-222 754,-216 760,-216 760,-216 842,-216 842,-216 848,-216 854,-222 854,-228 854,-228 854,-240 854,-240 854,-246 848,-252 842,-252"/>
<text text-anchor="middle" x="801" y="-231.5" font-family="sans" font-size="10.00">frip_seacr_relaxed</text>
</g>
<!-- 3&#45;&gt;15 -->
<g id="edge50" class="edge">
<title>3&#45;&gt;15</title>
<path fill="none" stroke="grey" stroke-width="2" d="M615.2,-503.78C628.22,-473.45 657.5,-409.09 691,-360 716.73,-322.29 752.57,-283.54 776.26,-259.38"/>
<polygon fill="grey" stroke="grey" stroke-width="2" points="778.95,-261.64 783.5,-252.07 773.97,-256.72 778.95,-261.64"/>
</g>
<!-- 16 -->
<g id="node17" class="node">
<title>16</title>
<path fill="none" stroke="#d8bc56" stroke-width="2" d="M860,-324C860,-324 800,-324 800,-324 794,-324 788,-318 788,-312 788,-312 788,-300 788,-300 788,-294 794,-288 800,-288 800,-288 860,-288 860,-288 866,-288 872,-294 872,-300 872,-300 872,-312 872,-312 872,-318 866,-324 860,-324"/>
<text text-anchor="middle" x="830" y="-303.5" font-family="sans" font-size="10.00">seacr_relaxed</text>
</g>
<!-- 3&#45;&gt;16 -->
<g id="edge53" class="edge">
<title>3&#45;&gt;16</title>
<path fill="none" stroke="grey" stroke-width="2" d="M635.25,-504.76C670.09,-483.07 730.92,-442.01 773,-396 790.48,-376.89 806.01,-351.79 816.43,-333.13"/>
<polygon fill="grey" stroke="grey" stroke-width="2" points="819.54,-334.73 821.26,-324.27 813.4,-331.38 819.54,-334.73"/>
</g>
<!-- 19 -->
<g id="node20" class="node">
<title>19</title>
<path fill="none" stroke="#d86e56" stroke-width="2" d="M876,-468C876,-468 832,-468 832,-468 826,-468 820,-462 820,-456 820,-456 820,-444 820,-444 820,-438 826,-432 832,-432 832,-432 876,-432 876,-432 882,-432 888,-438 888,-444 888,-444 888,-456 888,-456 888,-462 882,-468 876,-468"/>
<text text-anchor="middle" x="854" y="-447.5" font-family="sans" font-size="10.00">name_sort</text>
</g>
<!-- 3&#45;&gt;19 -->
<g id="edge55" class="edge">
<title>3&#45;&gt;19</title>
<path fill="none" stroke="grey" stroke-width="2" d="M635.09,-514.47C673.41,-505.07 745.51,-486.78 806,-468 807.4,-467.57 808.82,-467.12 810.25,-466.66"/>
<polygon fill="grey" stroke="grey" stroke-width="2" points="811.38,-469.97 819.76,-463.5 809.17,-463.33 811.38,-469.97"/>
</g>
<!-- 20 -->
<g id="node21" class="node">
<title>20</title>
<path fill="none" stroke="#d89556" stroke-width="2" d="M2288.5,-252C2288.5,-252 2199.5,-252 2199.5,-252 2193.5,-252 2187.5,-246 2187.5,-240 2187.5,-240 2187.5,-228 2187.5,-228 2187.5,-222 2193.5,-216 2199.5,-216 2199.5,-216 2288.5,-216 2288.5,-216 2294.5,-216 2300.5,-222 2300.5,-228 2300.5,-228 2300.5,-240 2300.5,-240 2300.5,-246 2294.5,-252 2288.5,-252"/>
<text text-anchor="middle" x="2244" y="-231.5" font-family="sans" font-size="10.00">frip_seacr_stringent</text>
</g>
<!-- 3&#45;&gt;20 -->
<g id="edge57" class="edge">
<title>3&#45;&gt;20</title>
<path fill="none" stroke="grey" stroke-width="2" d="M635.14,-517.23C694.5,-508.92 840.3,-488.16 962,-468 1428.45,-390.71 1987.8,-284.31 2177.42,-247.86"/>
<polygon fill="grey" stroke="grey" stroke-width="2" points="2178.09,-251.29 2187.25,-245.97 2176.76,-244.42 2178.09,-251.29"/>
</g>
<!-- 21 -->
<g id="node22" class="node">
<title>21</title>
<path fill="none" stroke="#568ad8" stroke-width="2" d="M1040,-324C1040,-324 972,-324 972,-324 966,-324 960,-318 960,-312 960,-312 960,-300 960,-300 960,-294 966,-288 972,-288 972,-288 1040,-288 1040,-288 1046,-288 1052,-294 1052,-300 1052,-300 1052,-312 1052,-312 1052,-318 1046,-324 1040,-324"/>
<text text-anchor="middle" x="1006" y="-303.5" font-family="sans" font-size="10.00">seacr_stringent</text>
</g>
<!-- 3&#45;&gt;21 -->
<g id="edge60" class="edge">
<title>3&#45;&gt;21</title>
<path fill="none" stroke="grey" stroke-width="2" d="M635.25,-519.81C704.73,-516.27 886.3,-503.75 933,-468 976.14,-434.97 994.52,-370.64 1001.76,-334.08"/>
<polygon fill="grey" stroke="grey" stroke-width="2" points="1005.23,-334.6 1003.59,-324.13 998.34,-333.33 1005.23,-334.6"/>
</g>
<!-- 29 -->
<g id="node30" class="node">
<title>29</title>
<path fill="none" stroke="#59d856" stroke-width="2" d="M1040,-252C1040,-252 986,-252 986,-252 980,-252 974,-246 974,-240 974,-240 974,-228 974,-228 974,-222 980,-216 986,-216 986,-216 1040,-216 1040,-216 1046,-216 1052,-222 1052,-228 1052,-228 1052,-240 1052,-240 1052,-246 1046,-252 1040,-252"/>
<text text-anchor="middle" x="1013" y="-231.5" font-family="sans" font-size="10.00">peak_counts</text>
</g>
<!-- 3&#45;&gt;29 -->
<g id="edge71" class="edge">
<title>3&#45;&gt;29</title>
<path fill="none" stroke="grey" stroke-width="2" d="M635.07,-519.57C699.31,-515.63 858.43,-502.54 897,-468 959.22,-412.28 905.4,-357.98 951,-288 958.26,-276.86 968.53,-266.76 978.64,-258.44"/>
<polygon fill="grey" stroke="grey" stroke-width="2" points="980.93,-261.09 986.64,-252.16 976.61,-255.58 980.93,-261.09"/>
</g>
<!-- 4 -->
<g id="node5" class="node">
<title>4</title>
<path fill="none" stroke="#8fd856" stroke-width="2" d="M626,-612C626,-612 590,-612 590,-612 584,-612 578,-606 578,-600 578,-600 578,-588 578,-588 578,-582 584,-576 590,-576 590,-576 626,-576 626,-576 632,-576 638,-582 638,-588 638,-588 638,-600 638,-600 638,-606 632,-612 626,-612"/>
<text text-anchor="middle" x="608" y="-591.5" font-family="sans" font-size="10.00">markdup</text>
</g>
<!-- 4&#45;&gt;3 -->
<g id="edge34" class="edge">
<title>4&#45;&gt;3</title>
<path fill="none" stroke="grey" stroke-width="2" d="M608,-575.7C608,-567.98 608,-558.71 608,-550.11"/>
<polygon fill="grey" stroke="grey" stroke-width="2" points="611.5,-550.1 608,-540.1 604.5,-550.1 611.5,-550.1"/>
</g>
<!-- 5 -->
<g id="node6" class="node">
<title>5</title>
<path fill="none" stroke="#56c1d8" stroke-width="2" d="M623,-684C623,-684 593,-684 593,-684 587,-684 581,-678 581,-672 581,-672 581,-660 581,-660 581,-654 587,-648 593,-648 593,-648 623,-648 623,-648 629,-648 635,-654 635,-660 635,-660 635,-672 635,-672 635,-678 629,-684 623,-684"/>
<text text-anchor="middle" x="608" y="-663.5" font-family="sans" font-size="10.00">sort</text>
</g>
<!-- 5&#45;&gt;4 -->
<g id="edge35" class="edge">
<title>5&#45;&gt;4</title>
<path fill="none" stroke="grey" stroke-width="2" d="M608,-647.7C608,-639.98 608,-630.71 608,-622.11"/>
<polygon fill="grey" stroke="grey" stroke-width="2" points="611.5,-622.1 608,-612.1 604.5,-622.1 611.5,-622.1"/>
</g>
<!-- 6 -->
<g id="node7" class="node">
<title>6</title>
<path fill="none" stroke="#d87556" stroke-width="2" d="M624,-756C624,-756 592,-756 592,-756 586,-756 580,-750 580,-744 580,-744 580,-732 580,-732 580,-726 586,-720 592,-720 592,-720 624,-720 624,-720 630,-720 636,-726 636,-732 636,-732 636,-744 636,-744 636,-750 630,-756 624,-756"/>
<text text-anchor="middle" x="608" y="-735.5" font-family="sans" font-size="10.00">bowtie2</text>
</g>
<!-- 6&#45;&gt;5 -->
<g id="edge36" class="edge">
<title>6&#45;&gt;5</title>
<path fill="none" stroke="grey" stroke-width="2" d="M608,-719.7C608,-711.98 608,-702.71 608,-694.11"/>
<polygon fill="grey" stroke="grey" stroke-width="2" points="611.5,-694.1 608,-684.1 604.5,-694.1 611.5,-694.1"/>
</g>
<!-- 7&#45;&gt;0 -->
<g id="edge7" class="edge">
<title>7&#45;&gt;0</title>
<path fill="none" stroke="grey" stroke-width="2" d="M231.56,-431.59C226.59,-404.9 218,-352.19 218,-307 218,-307 218,-307 218,-161 218,-117.07 224.74,-96.81 261,-72 313.1,-36.36 757.59,-23.03 890.57,-19.82"/>
<polygon fill="grey" stroke="grey" stroke-width="2" points="890.76,-23.32 900.67,-19.58 890.59,-16.32 890.76,-23.32"/>
</g>
<!-- 8&#45;&gt;0 -->
<g id="edge22" class="edge">
<title>8&#45;&gt;0</title>
<path fill="none" stroke="grey" stroke-width="2" d="M306.84,-431.88C296.39,-422.36 284.45,-409.68 277,-396 257.55,-360.31 256,-347.64 256,-307 256,-307 256,-307 256,-161 256,-117.26 262.07,-96.95 298,-72 346.73,-38.17 762.38,-23.68 890.54,-19.99"/>
<polygon fill="grey" stroke="grey" stroke-width="2" points="890.75,-23.49 900.65,-19.71 890.55,-16.49 890.75,-23.49"/>
</g>
<!-- 9&#45;&gt;0 -->
<g id="edge9" class="edge">
<title>9&#45;&gt;0</title>
<path fill="none" stroke="grey" stroke-width="2" d="M354.48,-215.8C341.51,-183.14 319.63,-111.89 356,-72 392.03,-32.47 769.35,-21.97 890.66,-19.61"/>
<polygon fill="grey" stroke="grey" stroke-width="2" points="891,-23.1 900.93,-19.42 890.87,-16.11 891,-23.1"/>
</g>
<!-- 10&#45;&gt;0 -->
<g id="edge12" class="edge">
<title>10&#45;&gt;0</title>
<path fill="none" stroke="grey" stroke-width="2" d="M454.13,-287.9C435.3,-239.69 386.07,-104.07 415,-72 446.77,-36.78 777.47,-23.55 890.43,-20.04"/>
<polygon fill="grey" stroke="grey" stroke-width="2" points="890.77,-23.53 900.66,-19.73 890.56,-16.53 890.77,-23.53"/>
</g>
<!-- 10&#45;&gt;9 -->
<g id="edge40" class="edge">
<title>10&#45;&gt;9</title>
<path fill="none" stroke="grey" stroke-width="2" d="M436.78,-287.88C424.08,-278.89 408.34,-267.76 394.58,-258.03"/>
<polygon fill="grey" stroke="grey" stroke-width="2" points="396.5,-255.11 386.31,-252.19 392.46,-260.82 396.5,-255.11"/>
</g>
<!-- 23 -->
<g id="node24" class="node">
<title>23</title>
<path fill="none" stroke="#56b1d8" stroke-width="2" d="M680,-252C680,-252 636,-252 636,-252 630,-252 624,-246 624,-240 624,-240 624,-228 624,-228 624,-222 630,-216 636,-216 636,-216 680,-216 680,-216 686,-216 692,-222 692,-228 692,-228 692,-240 692,-240 692,-246 686,-252 680,-252"/>
<text text-anchor="middle" x="658" y="-231.5" font-family="sans" font-size="10.00">consensus</text>
</g>
<!-- 10&#45;&gt;23 -->
<g id="edge64" class="edge">
<title>10&#45;&gt;23</title>
<path fill="none" stroke="grey" stroke-width="2" d="M490.07,-294.67C522.79,-283.05 576.3,-264.03 614.11,-250.6"/>
<polygon fill="grey" stroke="grey" stroke-width="2" points="615.59,-253.78 623.84,-247.14 613.25,-247.19 615.59,-253.78"/>
</g>
<!-- 10&#45;&gt;29 -->
<g id="edge72" class="edge">
<title>10&#45;&gt;29</title>
<path fill="none" stroke="grey" stroke-width="2" d="M490.02,-300.45C513.04,-296.89 546.05,-291.91 575,-288 715.75,-268.99 882.4,-249.71 963.58,-240.53"/>
<polygon fill="grey" stroke="grey" stroke-width="2" points="964.44,-243.95 973.99,-239.35 963.66,-237 964.44,-243.95"/>
</g>
<!-- 11 -->
<g id="node12" class="node">
<title>11</title>
<path fill="none" stroke="#70d856" stroke-width="2" d="M361.5,-396C361.5,-396 298.5,-396 298.5,-396 292.5,-396 286.5,-390 286.5,-384 286.5,-384 286.5,-372 286.5,-372 286.5,-366 292.5,-360 298.5,-360 298.5,-360 361.5,-360 361.5,-360 367.5,-360 373.5,-366 373.5,-372 373.5,-372 373.5,-384 373.5,-384 373.5,-390 367.5,-396 361.5,-396"/>
<text text-anchor="middle" x="330" y="-375.5" font-family="sans" font-size="10.00">wget_gopeaks</text>
</g>
<!-- 11&#45;&gt;0 -->
<g id="edge13" class="edge">
<title>11&#45;&gt;0</title>
<path fill="none" stroke="grey" stroke-width="2" d="M322.71,-359.87C312.2,-333.53 294,-281.29 294,-235 294,-235 294,-235 294,-161 294,-117.45 299.41,-97.1 335,-72 380.4,-39.99 767.75,-24.36 890.71,-20.18"/>
<polygon fill="grey" stroke="grey" stroke-width="2" points="890.89,-23.68 900.77,-19.84 890.66,-16.68 890.89,-23.68"/>
</g>
<!-- 11&#45;&gt;10 -->
<g id="edge41" class="edge">
<title>11&#45;&gt;10</title>
<path fill="none" stroke="grey" stroke-width="2" d="M362.05,-359.88C380.49,-350.02 403.76,-337.59 423.11,-327.25"/>
<polygon fill="grey" stroke="grey" stroke-width="2" points="424.8,-330.31 431.97,-322.51 421.5,-324.14 424.8,-330.31"/>
</g>
<!-- 12&#45;&gt;10 -->
<g id="edge43" class="edge">
<title>12&#45;&gt;10</title>
<path fill="none" stroke="grey" stroke-width="2" d="M545.89,-360.05C531.14,-350.84 512.71,-339.32 496.79,-329.37"/>
<polygon fill="grey" stroke="grey" stroke-width="2" points="498.59,-326.36 488.25,-324.03 494.88,-332.3 498.59,-326.36"/>
</g>
<!-- 12&#45;&gt;14 -->
<g id="edge48" class="edge">
<title>12&#45;&gt;14</title>
<path fill="none" stroke="grey" stroke-width="2" d="M582.39,-359.7C586.76,-351.64 592.06,-341.89 596.9,-332.98"/>
<polygon fill="grey" stroke="grey" stroke-width="2" points="600.02,-334.56 601.71,-324.1 593.87,-331.22 600.02,-334.56"/>
</g>
<!-- 13&#45;&gt;0 -->
<g id="edge18" class="edge">
<title>13&#45;&gt;0</title>
<path fill="none" stroke="grey" stroke-width="2" d="M477.1,-215.86C447.65,-183.95 393.56,-114.77 432,-72 462.57,-37.99 780.34,-24.02 890.58,-20.18"/>
<polygon fill="grey" stroke="grey" stroke-width="2" points="891.01,-23.66 900.89,-19.83 890.77,-16.67 891.01,-23.66"/>
</g>
<!-- 14&#45;&gt;0 -->
<g id="edge14" class="edge">
<title>14&#45;&gt;0</title>
<path fill="none" stroke="grey" stroke-width="2" d="M596.36,-287.86C562.64,-247.91 481.51,-148.89 470,-108 465.67,-92.6 459.36,-83.95 470,-72 497.86,-40.73 786.34,-25.16 890.64,-20.52"/>
<polygon fill="grey" stroke="grey" stroke-width="2" points="890.87,-24.02 900.71,-20.09 890.57,-17.02 890.87,-24.02"/>
</g>
<!-- 14&#45;&gt;13 -->
<g id="edge45" class="edge">
<title>14&#45;&gt;13</title>
<path fill="none" stroke="grey" stroke-width="2" d="M583.86,-288.76C568.23,-279.41 548.35,-267.52 531.26,-257.29"/>
<polygon fill="grey" stroke="grey" stroke-width="2" points="533,-254.25 522.62,-252.12 529.41,-260.26 533,-254.25"/>
</g>
<!-- 14&#45;&gt;23 -->
<g id="edge63" class="edge">
<title>14&#45;&gt;23</title>
<path fill="none" stroke="grey" stroke-width="2" d="M622.62,-287.7C628.14,-279.47 634.85,-269.48 640.93,-260.42"/>
<polygon fill="grey" stroke="grey" stroke-width="2" points="643.85,-262.36 646.52,-252.1 638.04,-258.46 643.85,-262.36"/>
</g>
<!-- 14&#45;&gt;29 -->
<g id="edge74" class="edge">
<title>14&#45;&gt;29</title>
<path fill="none" stroke="grey" stroke-width="2" d="M638,-300.3C704.74,-288.68 878.23,-258.47 963.8,-243.57"/>
<polygon fill="grey" stroke="grey" stroke-width="2" points="964.54,-246.99 973.79,-241.83 963.34,-240.1 964.54,-246.99"/>
</g>
<!-- 32 -->
<g id="node33" class="node">
<title>32</title>
<path fill="none" stroke="#5663d8" stroke-width="2" d="M900.5,-180C900.5,-180 827.5,-180 827.5,-180 821.5,-180 815.5,-174 815.5,-168 815.5,-168 815.5,-156 815.5,-156 815.5,-150 821.5,-144 827.5,-144 827.5,-144 900.5,-144 900.5,-144 906.5,-144 912.5,-150 912.5,-156 912.5,-156 912.5,-168 912.5,-168 912.5,-174 906.5,-180 900.5,-180"/>
<text text-anchor="middle" x="864" y="-159.5" font-family="sans" font-size="10.00">evaluate_macs2</text>
</g>
<!-- 14&#45;&gt;32 -->
<g id="edge81" class="edge">
<title>14&#45;&gt;32</title>
<path fill="none" stroke="grey" stroke-width="2" d="M638.4,-290.98C656.77,-281.07 681.15,-266.94 701,-252 719.59,-238.01 719.54,-228.74 739,-216 759.53,-202.56 784.03,-191.29 805.88,-182.64"/>
<polygon fill="grey" stroke="grey" stroke-width="2" points="807.31,-185.84 815.38,-178.98 804.79,-179.31 807.31,-185.84"/>
</g>
<!-- 15&#45;&gt;0 -->
<g id="edge21" class="edge">
<title>15&#45;&gt;0</title>
<path fill="none" stroke="grey" stroke-width="2" d="M796.76,-215.7C793.06,-196.23 790.46,-164.65 806,-144 835.17,-105.26 876.94,-144.38 909,-108 923.81,-91.2 928.04,-65.72 928.87,-46.32"/>
<polygon fill="grey" stroke="grey" stroke-width="2" points="932.37,-46.31 929.03,-36.26 925.37,-46.21 932.37,-46.31"/>
</g>
<!-- 16&#45;&gt;0 -->
<g id="edge8" class="edge">
<title>16&#45;&gt;0</title>
<path fill="none" stroke="grey" stroke-width="2" d="M847.02,-287.99C877.45,-256.11 939.68,-183.72 958,-108 961.76,-92.45 962.08,-87.47 958,-72 955.51,-62.54 950.9,-52.99 946.03,-44.66"/>
<polygon fill="grey" stroke="grey" stroke-width="2" points="948.99,-42.79 940.73,-36.15 943.05,-46.49 948.99,-42.79"/>
</g>
<!-- 16&#45;&gt;15 -->
<g id="edge49" class="edge">
<title>16&#45;&gt;15</title>
<path fill="none" stroke="grey" stroke-width="2" d="M822.83,-287.7C819.57,-279.81 815.63,-270.3 812,-261.55"/>
<polygon fill="grey" stroke="grey" stroke-width="2" points="815.15,-260 808.09,-252.1 808.68,-262.68 815.15,-260"/>
</g>
<!-- 16&#45;&gt;23 -->
<g id="edge61" class="edge">
<title>16&#45;&gt;23</title>
<path fill="none" stroke="grey" stroke-width="2" d="M787.92,-287.88C761.71,-277.21 728.04,-263.51 701.55,-252.72"/>
<polygon fill="grey" stroke="grey" stroke-width="2" points="702.72,-249.42 692.14,-248.9 700.09,-255.91 702.72,-249.42"/>
</g>
<!-- 16&#45;&gt;29 -->
<g id="edge73" class="edge">
<title>16&#45;&gt;29</title>
<path fill="none" stroke="grey" stroke-width="2" d="M872.44,-288.76C899.95,-278.24 935.86,-264.51 964.5,-253.55"/>
<polygon fill="grey" stroke="grey" stroke-width="2" points="965.82,-256.79 973.91,-249.95 963.32,-250.26 965.82,-256.79"/>
</g>
<!-- 33 -->
<g id="node34" class="node">
<title>33</title>
<path fill="none" stroke="#d89c56" stroke-width="2" d="M1985,-180C1985,-180 1877,-180 1877,-180 1871,-180 1865,-174 1865,-168 1865,-168 1865,-156 1865,-156 1865,-150 1871,-144 1877,-144 1877,-144 1985,-144 1985,-144 1991,-144 1997,-150 1997,-156 1997,-156 1997,-168 1997,-168 1997,-174 1991,-180 1985,-180"/>
<text text-anchor="middle" x="1931" y="-159.5" font-family="sans" font-size="10.00">evaluate_seacr_relaxed</text>
</g>
<!-- 16&#45;&gt;33 -->
<g id="edge82" class="edge">
<title>16&#45;&gt;33</title>
<path fill="none" stroke="grey" stroke-width="2" d="M872.26,-298.91C895.49,-295.61 924.82,-291.49 951,-288 1204.55,-254.21 1267.94,-245.71 1522,-216 1667.11,-199.03 1707.02,-204.3 1854.93,-180.07"/>
<polygon fill="grey" stroke="grey" stroke-width="2" points="1855.53,-183.52 1864.83,-178.43 1854.39,-176.62 1855.53,-183.52"/>
</g>
<!-- 17 -->
<g id="node18" class="node">
<title>17</title>
<path fill="none" stroke="#56d86b" stroke-width="2" d="M752,-396C752,-396 712,-396 712,-396 706,-396 700,-390 700,-384 700,-384 700,-372 700,-372 700,-366 706,-360 712,-360 712,-360 752,-360 752,-360 758,-360 764,-366 764,-372 764,-372 764,-384 764,-384 764,-390 758,-396 752,-396"/>
<text text-anchor="middle" x="732" y="-375.5" font-family="sans" font-size="10.00">get_seacr</text>
</g>
<!-- 17&#45;&gt;0 -->
<g id="edge16" class="edge">
<title>17&#45;&gt;0</title>
<path fill="none" stroke="grey" stroke-width="2" d="M715.46,-359.72C687.74,-330.7 633.14,-273.25 615,-252 562.35,-190.34 529.31,-184.69 503,-108 497.81,-92.87 492.41,-83.99 503,-72 528.52,-43.1 791.74,-26.23 890.68,-20.88"/>
<polygon fill="grey" stroke="grey" stroke-width="2" points="891.02,-24.36 900.82,-20.34 890.65,-17.37 891.02,-24.36"/>
</g>
<!-- 17&#45;&gt;16 -->
<g id="edge51" class="edge">
<title>17&#45;&gt;16</title>
<path fill="none" stroke="grey" stroke-width="2" d="M755.97,-359.88C768.55,-350.89 784.13,-339.76 797.75,-330.03"/>
<polygon fill="grey" stroke="grey" stroke-width="2" points="799.83,-332.85 805.93,-324.19 795.76,-327.15 799.83,-332.85"/>
</g>
<!-- 17&#45;&gt;21 -->
<g id="edge58" class="edge">
<title>17&#45;&gt;21</title>
<path fill="none" stroke="grey" stroke-width="2" d="M764.24,-368.76C809.88,-357.1 894,-335.61 949.98,-321.31"/>
<polygon fill="grey" stroke="grey" stroke-width="2" points="950.92,-324.68 959.74,-318.82 949.19,-317.9 950.92,-324.68"/>
</g>
<!-- 18 -->
<g id="node19" class="node">
<title>18</title>
<path fill="none" stroke="#566bd8" stroke-width="2" d="M873,-396C873,-396 835,-396 835,-396 829,-396 823,-390 823,-384 823,-384 823,-372 823,-372 823,-366 829,-360 835,-360 835,-360 873,-360 873,-360 879,-360 885,-366 885,-372 885,-372 885,-384 885,-384 885,-390 879,-396 873,-396"/>
<text text-anchor="middle" x="854" y="-375.5" font-family="sans" font-size="10.00">bedgraph</text>
</g>
<!-- 18&#45;&gt;16 -->
<g id="edge52" class="edge">
<title>18&#45;&gt;16</title>
<path fill="none" stroke="grey" stroke-width="2" d="M848.07,-359.7C845.39,-351.9 842.17,-342.51 839.2,-333.83"/>
<polygon fill="grey" stroke="grey" stroke-width="2" points="842.42,-332.43 835.86,-324.1 835.8,-334.7 842.42,-332.43"/>
</g>
<!-- 18&#45;&gt;21 -->
<g id="edge59" class="edge">
<title>18&#45;&gt;21</title>
<path fill="none" stroke="grey" stroke-width="2" d="M885.13,-362.67C906.6,-352.78 935.51,-339.46 959.67,-328.33"/>
<polygon fill="grey" stroke="grey" stroke-width="2" points="961.4,-331.39 969.02,-324.03 958.47,-325.04 961.4,-331.39"/>
</g>
<!-- 19&#45;&gt;18 -->
<g id="edge54" class="edge">
<title>19&#45;&gt;18</title>
<path fill="none" stroke="grey" stroke-width="2" d="M854,-431.7C854,-423.98 854,-414.71 854,-406.11"/>
<polygon fill="grey" stroke="grey" stroke-width="2" points="857.5,-406.1 854,-396.1 850.5,-406.1 857.5,-406.1"/>
</g>
<!-- 20&#45;&gt;0 -->
<g id="edge4" class="edge">
<title>20&#45;&gt;0</title>
<path fill="none" stroke="grey" stroke-width="2" d="M2244.88,-215.89C2245.58,-182.1 2241.71,-107 2197,-72 2147.27,-33.06 1169.8,-21.37 965.31,-19.34"/>
<polygon fill="grey" stroke="grey" stroke-width="2" points="965.12,-15.84 955.08,-19.24 965.05,-22.84 965.12,-15.84"/>
</g>
<!-- 21&#45;&gt;0 -->
<g id="edge31" class="edge">
<title>21&#45;&gt;0</title>
<path fill="none" stroke="grey" stroke-width="2" d="M1052.32,-302.33C1160.49,-295.87 1438.07,-278 1669,-252 1889.92,-227.13 2018.55,-348.13 2164,-180 2174.47,-167.9 2173.47,-156.9 2164,-144 2100.88,-57.99 2039.99,-90.95 1935,-72 1743.43,-37.42 1124.76,-22.92 965.61,-19.71"/>
<polygon fill="grey" stroke="grey" stroke-width="2" points="965.44,-16.21 955.38,-19.51 965.3,-23.21 965.44,-16.21"/>
</g>
<!-- 21&#45;&gt;20 -->
<g id="edge56" class="edge">
<title>21&#45;&gt;20</title>
<path fill="none" stroke="grey" stroke-width="2" d="M1052.07,-304.08C1240.2,-300.12 1950.71,-283.37 2173,-252 2174.31,-251.82 2175.62,-251.62 2176.95,-251.41"/>
<polygon fill="grey" stroke="grey" stroke-width="2" points="2177.98,-254.78 2187.22,-249.6 2176.76,-247.89 2177.98,-254.78"/>
</g>
<!-- 21&#45;&gt;23 -->
<g id="edge62" class="edge">
<title>21&#45;&gt;23</title>
<path fill="none" stroke="grey" stroke-width="2" d="M959.66,-295.96C906.39,-285.53 816.33,-267.79 739,-252 727.13,-249.58 714.3,-246.91 702.42,-244.41"/>
<polygon fill="grey" stroke="grey" stroke-width="2" points="702.78,-240.91 692.27,-242.28 701.34,-247.76 702.78,-240.91"/>
</g>
<!-- 21&#45;&gt;29 -->
<g id="edge75" class="edge">
<title>21&#45;&gt;29</title>
<path fill="none" stroke="grey" stroke-width="2" d="M1007.73,-287.7C1008.5,-279.98 1009.43,-270.71 1010.29,-262.11"/>
<polygon fill="grey" stroke="grey" stroke-width="2" points="1013.78,-262.4 1011.29,-252.1 1006.81,-261.71 1013.78,-262.4"/>
</g>
<!-- 34 -->
<g id="node35" class="node">
<title>34</title>
<path fill="none" stroke="#569ad8" stroke-width="2" d="M2143,-180C2143,-180 2027,-180 2027,-180 2021,-180 2015,-174 2015,-168 2015,-168 2015,-156 2015,-156 2015,-150 2021,-144 2027,-144 2027,-144 2143,-144 2143,-144 2149,-144 2155,-150 2155,-156 2155,-156 2155,-168 2155,-168 2155,-174 2149,-180 2143,-180"/>
<text text-anchor="middle" x="2085" y="-159.5" font-family="sans" font-size="10.00">evaluate_seacr_stringent</text>
</g>
<!-- 21&#45;&gt;34 -->
<g id="edge83" class="edge">
<title>21&#45;&gt;34</title>
<path fill="none" stroke="grey" stroke-width="2" d="M1052.33,-300.95C1142.78,-292.89 1349.1,-273.73 1522,-252 1734.51,-225.29 1790.35,-219.08 2004.83,-180.16"/>
<polygon fill="grey" stroke="grey" stroke-width="2" points="2005.62,-183.58 2014.84,-178.34 2004.37,-176.69 2005.62,-183.58"/>
</g>
<!-- 22 -->
<g id="node23" class="node">
<title>22</title>
<path fill="none" stroke="#d85e56" stroke-width="2" d="M2318.5,-108C2318.5,-108 2261.5,-108 2261.5,-108 2255.5,-108 2249.5,-102 2249.5,-96 2249.5,-96 2249.5,-84 2249.5,-84 2249.5,-78 2255.5,-72 2261.5,-72 2261.5,-72 2318.5,-72 2318.5,-72 2324.5,-72 2330.5,-78 2330.5,-84 2330.5,-84 2330.5,-96 2330.5,-96 2330.5,-102 2324.5,-108 2318.5,-108"/>
<text text-anchor="middle" x="2290" y="-87.5" font-family="sans" font-size="10.00">get_seacr_14</text>
</g>
<!-- 22&#45;&gt;0 -->
<g id="edge2" class="edge">
<title>22&#45;&gt;0</title>
<path fill="none" stroke="grey" stroke-width="2" d="M2249.44,-75.18C2244.62,-73.92 2239.73,-72.81 2235,-72 1981.14,-28.38 1150.92,-20.45 965.11,-19.21"/>
<polygon fill="grey" stroke="grey" stroke-width="2" points="965.05,-15.71 955.03,-19.14 965.01,-22.71 965.05,-15.71"/>
</g>
<!-- 23&#45;&gt;0 -->
<g id="edge27" class="edge">
<title>23&#45;&gt;0</title>
<path fill="none" stroke="grey" stroke-width="2" d="M652.28,-215.96C647.07,-197.81 641.14,-168.4 648,-144 658.16,-107.9 661.51,-93.84 692,-72 752.08,-28.97 841.08,-20.05 890.85,-18.68"/>
<polygon fill="grey" stroke="grey" stroke-width="2" points="890.92,-22.18 900.85,-18.5 890.79,-15.18 890.92,-22.18"/>
</g>
<!-- 25 -->
<g id="node26" class="node">
<title>25</title>
<path fill="none" stroke="#d87d56" stroke-width="2" d="M708.5,-180C708.5,-180 669.5,-180 669.5,-180 663.5,-180 657.5,-174 657.5,-168 657.5,-168 657.5,-156 657.5,-156 657.5,-150 663.5,-144 669.5,-144 669.5,-144 708.5,-144 708.5,-144 714.5,-144 720.5,-150 720.5,-156 720.5,-156 720.5,-168 720.5,-168 720.5,-174 714.5,-180 708.5,-180"/>
<text text-anchor="middle" x="689" y="-159.5" font-family="sans" font-size="10.00">intervene</text>
</g>
<!-- 23&#45;&gt;25 -->
<g id="edge66" class="edge">
<title>23&#45;&gt;25</title>
<path fill="none" stroke="grey" stroke-width="2" d="M665.66,-215.7C669.19,-207.73 673.46,-198.1 677.37,-189.26"/>
<polygon fill="grey" stroke="grey" stroke-width="2" points="680.58,-190.67 681.43,-180.1 674.18,-187.83 680.58,-190.67"/>
</g>
<!-- 26 -->
<g id="node27" class="node">
<title>26</title>
<path fill="none" stroke="#a7d856" stroke-width="2" d="M888,-108C888,-108 852,-108 852,-108 846,-108 840,-102 840,-96 840,-96 840,-84 840,-84 840,-78 846,-72 852,-72 852,-72 888,-72 888,-72 894,-72 900,-78 900,-84 900,-84 900,-96 900,-96 900,-102 894,-108 888,-108"/>
<text text-anchor="middle" x="870" y="-87.5" font-family="sans" font-size="10.00">heatmap</text>
</g>
<!-- 23&#45;&gt;26 -->
<g id="edge67" class="edge">
<title>23&#45;&gt;26</title>
<path fill="none" stroke="grey" stroke-width="2" d="M681.54,-215.83C695.46,-205.58 713.37,-192.22 729,-180 748.91,-164.44 752.05,-158.12 773,-144 791.3,-131.67 812.72,-119.73 830.77,-110.31"/>
<polygon fill="grey" stroke="grey" stroke-width="2" points="832.58,-113.32 839.87,-105.63 829.38,-107.09 832.58,-113.32"/>
</g>
<!-- 27 -->
<g id="node28" class="node">
<title>27</title>
<path fill="none" stroke="#56d8d8" stroke-width="2" d="M617.5,-108C617.5,-108 524.5,-108 524.5,-108 518.5,-108 512.5,-102 512.5,-96 512.5,-96 512.5,-84 512.5,-84 512.5,-78 518.5,-72 524.5,-72 524.5,-72 617.5,-72 617.5,-72 623.5,-72 629.5,-78 629.5,-84 629.5,-84 629.5,-96 629.5,-96 629.5,-102 623.5,-108 617.5,-108"/>
<text text-anchor="middle" x="571" y="-87.5" font-family="sans" font-size="10.00">peak_characteristics</text>
</g>
<!-- 23&#45;&gt;27 -->
<g id="edge69" class="edge">
<title>23&#45;&gt;27</title>
<path fill="none" stroke="grey" stroke-width="2" d="M642.23,-215.6C633.6,-205.6 623.06,-192.57 615,-180 602.12,-159.92 590.31,-135.55 582.17,-117.39"/>
<polygon fill="grey" stroke="grey" stroke-width="2" points="585.28,-115.75 578.05,-108 578.87,-118.57 585.28,-115.75"/>
</g>
<!-- 24 -->
<g id="node25" class="node">
<title>24</title>
<path fill="none" stroke="#56a2d8" stroke-width="2" d="M810,-108C810,-108 736,-108 736,-108 730,-108 724,-102 724,-96 724,-96 724,-84 724,-84 724,-78 730,-72 736,-72 736,-72 810,-72 810,-72 816,-72 822,-78 822,-84 822,-84 822,-96 822,-96 822,-102 816,-108 810,-108"/>
<text text-anchor="middle" x="773" y="-87.5" font-family="sans" font-size="10.00">exclusive_signal</text>
</g>
<!-- 24&#45;&gt;0 -->
<g id="edge28" class="edge">
<title>24&#45;&gt;0</title>
<path fill="none" stroke="grey" stroke-width="2" d="M810.92,-71.88C835.44,-60.8 867.2,-46.46 891.45,-35.5"/>
<polygon fill="grey" stroke="grey" stroke-width="2" points="893.01,-38.64 900.68,-31.34 890.13,-32.26 893.01,-38.64"/>
</g>
<!-- 25&#45;&gt;0 -->
<g id="edge3" class="edge">
<title>25&#45;&gt;0</title>
<path fill="none" stroke="grey" stroke-width="2" d="M689.17,-143.68C690.33,-123.6 695.38,-90.84 715,-72 739.93,-48.06 836.48,-31.43 890.64,-23.78"/>
<polygon fill="grey" stroke="grey" stroke-width="2" points="891.44,-27.2 900.87,-22.37 890.48,-20.27 891.44,-27.2"/>
</g>
<!-- 25&#45;&gt;24 -->
<g id="edge65" class="edge">
<title>25&#45;&gt;24</title>
<path fill="none" stroke="grey" stroke-width="2" d="M709.76,-143.7C720.24,-134.97 733.11,-124.24 744.5,-114.75"/>
<polygon fill="grey" stroke="grey" stroke-width="2" points="747.03,-117.19 752.47,-108.1 742.55,-111.82 747.03,-117.19"/>
</g>
<!-- 25&#45;&gt;26 -->
<g id="edge68" class="edge">
<title>25&#45;&gt;26</title>
<path fill="none" stroke="grey" stroke-width="2" d="M720.77,-149.24C754.34,-136.81 805.06,-117.98 830.39,-108.09"/>
<polygon fill="grey" stroke="grey" stroke-width="2" points="831.83,-111.29 839.83,-104.34 829.25,-104.78 831.83,-111.29"/>
</g>
<!-- 26&#45;&gt;0 -->
<g id="edge10" class="edge">
<title>26&#45;&gt;0</title>
<path fill="none" stroke="grey" stroke-width="2" d="M884.34,-71.7C891.29,-63.3 899.77,-53.07 907.4,-43.86"/>
<polygon fill="grey" stroke="grey" stroke-width="2" points="910.14,-46.04 913.83,-36.1 904.75,-41.57 910.14,-46.04"/>
</g>
<!-- 27&#45;&gt;0 -->
<g id="edge26" class="edge">
<title>27&#45;&gt;0</title>
<path fill="none" stroke="grey" stroke-width="2" d="M629.52,-75.13C634.41,-74.05 639.29,-72.99 644,-72 732.31,-53.49 836.76,-34.82 891.05,-25.36"/>
<polygon fill="grey" stroke="grey" stroke-width="2" points="891.65,-28.81 900.9,-23.64 890.45,-21.91 891.65,-28.81"/>
</g>
<!-- 28 -->
<g id="node29" class="node">
<title>28</title>
<path fill="none" stroke="#56d89a" stroke-width="2" d="M1123.5,-108C1123.5,-108 1082.5,-108 1082.5,-108 1076.5,-108 1070.5,-102 1070.5,-96 1070.5,-96 1070.5,-84 1070.5,-84 1070.5,-78 1076.5,-72 1082.5,-72 1082.5,-72 1123.5,-72 1123.5,-72 1129.5,-72 1135.5,-78 1135.5,-84 1135.5,-84 1135.5,-96 1135.5,-96 1135.5,-102 1129.5,-108 1123.5,-108"/>
<text text-anchor="middle" x="1103" y="-87.5" font-family="sans" font-size="10.00">peak_plot</text>
</g>
<!-- 28&#45;&gt;0 -->
<g id="edge19" class="edge">
<title>28&#45;&gt;0</title>
<path fill="none" stroke="grey" stroke-width="2" d="M1070.49,-76C1040.53,-64.01 996.08,-46.23 964.82,-33.73"/>
<polygon fill="grey" stroke="grey" stroke-width="2" points="965.75,-30.33 955.16,-29.87 963.15,-36.83 965.75,-30.33"/>
</g>
<!-- 29&#45;&gt;0 -->
<g id="edge15" class="edge">
<title>29&#45;&gt;0</title>
<path fill="none" stroke="grey" stroke-width="2" d="M1013.92,-215.62C1015.14,-191.48 1017.23,-146.43 1018,-108 1018.32,-92 1025.94,-85.89 1018,-72 1006.61,-52.07 984.47,-38.89 965,-30.66"/>
<polygon fill="grey" stroke="grey" stroke-width="2" points="966.02,-27.29 955.43,-26.9 963.46,-33.81 966.02,-27.29"/>
</g>
<!-- 29&#45;&gt;28 -->
<g id="edge70" class="edge">
<title>29&#45;&gt;28</title>
<path fill="none" stroke="grey" stroke-width="2" d="M1014.17,-215.97C1016.16,-197.03 1021.54,-166.2 1036,-144 1043.55,-132.41 1054.48,-122.24 1065.34,-113.98"/>
<polygon fill="grey" stroke="grey" stroke-width="2" points="1067.5,-116.73 1073.57,-108.05 1063.41,-111.05 1067.5,-116.73"/>
</g>
<!-- 31 -->
<g id="node32" class="node">
<title>31</title>
<path fill="none" stroke="#56d8a2" stroke-width="2" d="M1835,-180C1835,-180 1753,-180 1753,-180 1747,-180 1741,-174 1741,-168 1741,-168 1741,-156 1741,-156 1741,-150 1747,-144 1753,-144 1753,-144 1835,-144 1835,-144 1841,-144 1847,-150 1847,-156 1847,-156 1847,-168 1847,-168 1847,-174 1841,-180 1835,-180"/>
<text text-anchor="middle" x="1794" y="-159.5" font-family="sans" font-size="10.00">evaluate_gopeaks</text>
</g>
<!-- 29&#45;&gt;31 -->
<g id="edge80" class="edge">
<title>29&#45;&gt;31</title>
<path fill="none" stroke="grey" stroke-width="2" d="M1052.29,-232.77C1159.75,-231.58 1467.49,-224.39 1730.59,-180.05"/>
<polygon fill="grey" stroke="grey" stroke-width="2" points="1731.45,-183.45 1740.71,-178.32 1730.27,-176.55 1731.45,-183.45"/>
</g>
<!-- 35 -->
<g id="node36" class="node">
<title>35</title>
<path fill="none" stroke="#d8a456" stroke-width="2" d="M1370.5,-180C1370.5,-180 1251.5,-180 1251.5,-180 1245.5,-180 1239.5,-174 1239.5,-168 1239.5,-168 1239.5,-156 1239.5,-156 1239.5,-150 1245.5,-144 1251.5,-144 1251.5,-144 1370.5,-144 1370.5,-144 1376.5,-144 1382.5,-150 1382.5,-156 1382.5,-156 1382.5,-168 1382.5,-168 1382.5,-174 1376.5,-180 1370.5,-180"/>
<text text-anchor="middle" x="1311" y="-159.5" font-family="sans" font-size="10.00">evaluate_gopeaks_counts</text>
</g>
<!-- 29&#45;&gt;35 -->
<g id="edge84" class="edge">
<title>29&#45;&gt;35</title>
<path fill="none" stroke="grey" stroke-width="2" d="M1052.26,-223.78C1097.16,-213.23 1171.88,-195.68 1229.52,-182.14"/>
<polygon fill="grey" stroke="grey" stroke-width="2" points="1230.4,-185.53 1239.34,-179.83 1228.8,-178.71 1230.4,-185.53"/>
</g>
<!-- 36 -->
<g id="node37" class="node">
<title>36</title>
<path fill="none" stroke="#d85656" stroke-width="2" d="M1523,-180C1523,-180 1413,-180 1413,-180 1407,-180 1401,-174 1401,-168 1401,-168 1401,-156 1401,-156 1401,-150 1407,-144 1413,-144 1413,-144 1523,-144 1523,-144 1529,-144 1535,-150 1535,-156 1535,-156 1535,-168 1535,-168 1535,-174 1529,-180 1523,-180"/>
<text text-anchor="middle" x="1468" y="-159.5" font-family="sans" font-size="10.00">evaluate_macs2_counts</text>
</g>
<!-- 29&#45;&gt;36 -->
<g id="edge85" class="edge">
<title>29&#45;&gt;36</title>
<path fill="none" stroke="grey" stroke-width="2" d="M1052.18,-228.58C1119.39,-220.78 1261.17,-203.31 1390.82,-180.14"/>
<polygon fill="grey" stroke="grey" stroke-width="2" points="1391.7,-183.53 1400.92,-178.31 1390.46,-176.64 1391.7,-183.53"/>
</g>
<!-- 37 -->
<g id="node38" class="node">
<title>37</title>
<path fill="none" stroke="#56d8c9" stroke-width="2" d="M1711,-180C1711,-180 1565,-180 1565,-180 1559,-180 1553,-174 1553,-168 1553,-168 1553,-156 1553,-156 1553,-150 1559,-144 1565,-144 1565,-144 1711,-144 1711,-144 1717,-144 1723,-150 1723,-156 1723,-156 1723,-168 1723,-168 1723,-174 1717,-180 1711,-180"/>
<text text-anchor="middle" x="1638" y="-159.5" font-family="sans" font-size="10.00">evaluate_seacr_relaxed_counts</text>
</g>
<!-- 29&#45;&gt;37 -->
<g id="edge86" class="edge">
<title>29&#45;&gt;37</title>
<path fill="none" stroke="grey" stroke-width="2" d="M1052.1,-230.17C1138.63,-223.67 1353.02,-206.3 1542.83,-180.1"/>
<polygon fill="grey" stroke="grey" stroke-width="2" points="1543.57,-183.53 1552.99,-178.69 1542.61,-176.6 1543.57,-183.53"/>
</g>
<!-- 38 -->
<g id="node39" class="node">
<title>38</title>
<path fill="none" stroke="#56d87b" stroke-width="2" d="M1209.5,-180C1209.5,-180 1056.5,-180 1056.5,-180 1050.5,-180 1044.5,-174 1044.5,-168 1044.5,-168 1044.5,-156 1044.5,-156 1044.5,-150 1050.5,-144 1056.5,-144 1056.5,-144 1209.5,-144 1209.5,-144 1215.5,-144 1221.5,-150 1221.5,-156 1221.5,-156 1221.5,-168 1221.5,-168 1221.5,-174 1215.5,-180 1209.5,-180"/>
<text text-anchor="middle" x="1133" y="-159.5" font-family="sans" font-size="10.00">evaluate_seacr_stringent_counts</text>
</g>
<!-- 29&#45;&gt;38 -->
<g id="edge87" class="edge">
<title>29&#45;&gt;38</title>
<path fill="none" stroke="grey" stroke-width="2" d="M1042.36,-215.88C1058.05,-206.72 1077.56,-195.34 1094.45,-185.48"/>
<polygon fill="grey" stroke="grey" stroke-width="2" points="1096.66,-188.25 1103.53,-180.19 1093.13,-182.21 1096.66,-188.25"/>
</g>
<!-- 30 -->
<g id="node31" class="node">
<title>30</title>
<path fill="none" stroke="#56d8c1" stroke-width="2" d="M1810,-108C1810,-108 1778,-108 1778,-108 1772,-108 1766,-102 1766,-96 1766,-96 1766,-84 1766,-84 1766,-78 1772,-72 1778,-72 1778,-72 1810,-72 1810,-72 1816,-72 1822,-78 1822,-84 1822,-84 1822,-96 1822,-96 1822,-102 1816,-108 1810,-108"/>
<text text-anchor="middle" x="1794" y="-87.5" font-family="sans" font-size="10.00">plot_roc</text>
</g>
<!-- 30&#45;&gt;0 -->
<g id="edge23" class="edge">
<title>30&#45;&gt;0</title>
<path fill="none" stroke="grey" stroke-width="2" d="M1765.88,-85.72C1734.12,-82.08 1680.89,-76.17 1635,-72 1379.31,-48.75 1070.92,-28.2 965.46,-21.39"/>
<polygon fill="grey" stroke="grey" stroke-width="2" points="965.53,-17.89 955.32,-20.74 965.08,-24.87 965.53,-17.89"/>
</g>
<!-- 31&#45;&gt;0 -->
<g id="edge20" class="edge">
<title>31&#45;&gt;0</title>
<path fill="none" stroke="grey" stroke-width="2" d="M1743.38,-143.96C1680.83,-123.59 1570.8,-90.02 1474,-72 1284.83,-36.79 1054.18,-24.15 965.34,-20.38"/>
<polygon fill="grey" stroke="grey" stroke-width="2" points="965.36,-16.88 955.22,-19.96 965.07,-23.87 965.36,-16.88"/>
</g>
<!-- 31&#45;&gt;30 -->
<g id="edge76" class="edge">
<title>31&#45;&gt;30</title>
<path fill="none" stroke="grey" stroke-width="2" d="M1794,-143.7C1794,-135.98 1794,-126.71 1794,-118.11"/>
<polygon fill="grey" stroke="grey" stroke-width="2" points="1797.5,-118.1 1794,-108.1 1790.5,-118.1 1797.5,-118.1"/>
</g>
<!-- 32&#45;&gt;0 -->
<g id="edge33" class="edge">
<title>32&#45;&gt;0</title>
<path fill="none" stroke="grey" stroke-width="2" d="M904.18,-143.77C918.83,-135.28 933.8,-123.48 942,-108 952.24,-88.67 947.11,-63.89 940.35,-45.39"/>
<polygon fill="grey" stroke="grey" stroke-width="2" points="943.59,-44.08 936.63,-36.1 937.1,-46.68 943.59,-44.08"/>
</g>
<!-- 32&#45;&gt;30 -->
<g id="edge79" class="edge">
<title>32&#45;&gt;30</title>
<path fill="none" stroke="grey" stroke-width="2" d="M912.53,-155.83C946.96,-152.25 994.29,-147.52 1036,-144 1311.7,-120.74 1644.43,-100.02 1755.69,-93.29"/>
<polygon fill="grey" stroke="grey" stroke-width="2" points="1755.99,-96.78 1765.76,-92.68 1755.56,-89.79 1755.99,-96.78"/>
</g>
<!-- 33&#45;&gt;0 -->
<g id="edge5" class="edge">
<title>33&#45;&gt;0</title>
<path fill="none" stroke="grey" stroke-width="2" d="M1917.99,-143.86C1900.75,-122.63 1868.14,-87.4 1831,-72 1750.17,-38.49 1125.63,-23.16 965.38,-19.75"/>
<polygon fill="grey" stroke="grey" stroke-width="2" points="965.15,-16.24 955.08,-19.53 965,-23.24 965.15,-16.24"/>
</g>
<!-- 33&#45;&gt;30 -->
<g id="edge77" class="edge">
<title>33&#45;&gt;30</title>
<path fill="none" stroke="grey" stroke-width="2" d="M1897.49,-143.88C1877.43,-133.63 1851.9,-120.58 1831.21,-110.01"/>
<polygon fill="grey" stroke="grey" stroke-width="2" points="1832.59,-106.78 1822.09,-105.35 1829.4,-113.02 1832.59,-106.78"/>
</g>
<!-- 34&#45;&gt;0 -->
<g id="edge29" class="edge">
<title>34&#45;&gt;0</title>
<path fill="none" stroke="grey" stroke-width="2" d="M2053.34,-143.9C2012.37,-122.73 1938.14,-87.55 1870,-72 1693.38,-31.7 1118.72,-21.47 965.72,-19.44"/>
<polygon fill="grey" stroke="grey" stroke-width="2" points="965.48,-15.93 955.44,-19.31 965.39,-22.93 965.48,-15.93"/>
</g>
<!-- 34&#45;&gt;30 -->
<g id="edge78" class="edge">
<title>34&#45;&gt;30</title>
<path fill="none" stroke="grey" stroke-width="2" d="M2014.93,-144.14C1957.55,-130.34 1878.53,-111.33 1832.2,-100.19"/>
<polygon fill="grey" stroke="grey" stroke-width="2" points="1832.81,-96.74 1822.27,-97.8 1831.17,-103.54 1832.81,-96.74"/>
</g>
<!-- 35&#45;&gt;0 -->
<g id="edge6" class="edge">
<title>35&#45;&gt;0</title>
<path fill="none" stroke="grey" stroke-width="2" d="M1287.63,-143.69C1259.46,-123.61 1210.03,-90.87 1163,-72 1096.06,-45.14 1012.66,-30.42 965.36,-23.67"/>
<polygon fill="grey" stroke="grey" stroke-width="2" points="965.65,-20.17 955.27,-22.27 964.7,-27.11 965.65,-20.17"/>
</g>
<!-- 39 -->
<g id="node40" class="node">
<title>39</title>
<path fill="none" stroke="#56d8d0" stroke-width="2" d="M1345.5,-108C1345.5,-108 1276.5,-108 1276.5,-108 1270.5,-108 1264.5,-102 1264.5,-96 1264.5,-96 1264.5,-84 1264.5,-84 1264.5,-78 1270.5,-72 1276.5,-72 1276.5,-72 1345.5,-72 1345.5,-72 1351.5,-72 1357.5,-78 1357.5,-84 1357.5,-84 1357.5,-96 1357.5,-96 1357.5,-102 1351.5,-108 1345.5,-108"/>
<text text-anchor="middle" x="1311" y="-87.5" font-family="sans" font-size="10.00">plot_roc_counts</text>
</g>
<!-- 35&#45;&gt;39 -->
<g id="edge88" class="edge">
<title>35&#45;&gt;39</title>
<path fill="none" stroke="grey" stroke-width="2" d="M1311,-143.7C1311,-135.98 1311,-126.71 1311,-118.11"/>
<polygon fill="grey" stroke="grey" stroke-width="2" points="1314.5,-118.1 1311,-108.1 1307.5,-118.1 1314.5,-118.1"/>
</g>
<!-- 36&#45;&gt;0 -->
<g id="edge1" class="edge">
<title>36&#45;&gt;0</title>
<path fill="none" stroke="grey" stroke-width="2" d="M1454.36,-143.85C1436.67,-122.96 1403.68,-88.44 1367,-72 1295.33,-39.89 1057.78,-25.25 965.3,-20.67"/>
<polygon fill="grey" stroke="grey" stroke-width="2" points="965.43,-17.17 955.27,-20.18 965.09,-24.16 965.43,-17.17"/>
</g>
<!-- 36&#45;&gt;39 -->
<g id="edge89" class="edge">
<title>36&#45;&gt;39</title>
<path fill="none" stroke="grey" stroke-width="2" d="M1429.59,-143.88C1408.13,-134.31 1381.2,-122.3 1358.43,-112.15"/>
<polygon fill="grey" stroke="grey" stroke-width="2" points="1359.84,-108.94 1349.28,-108.07 1356.99,-115.34 1359.84,-108.94"/>
</g>
<!-- 37&#45;&gt;0 -->
<g id="edge24" class="edge">
<title>37&#45;&gt;0</title>
<path fill="none" stroke="grey" stroke-width="2" d="M1601.96,-143.84C1557.12,-123.28 1477.68,-89.42 1406,-72 1245.08,-32.9 1046.58,-22.57 965.33,-19.9"/>
<polygon fill="grey" stroke="grey" stroke-width="2" points="965.21,-16.4 955.11,-19.59 964.99,-23.4 965.21,-16.4"/>
</g>
<!-- 37&#45;&gt;39 -->
<g id="edge91" class="edge">
<title>37&#45;&gt;39</title>
<path fill="none" stroke="grey" stroke-width="2" d="M1558.42,-143.97C1499.46,-131.34 1420.52,-114.44 1367.82,-103.16"/>
<polygon fill="grey" stroke="grey" stroke-width="2" points="1368.48,-99.73 1357.97,-101.05 1367.01,-106.57 1368.48,-99.73"/>
</g>
<!-- 38&#45;&gt;0 -->
<g id="edge17" class="edge">
<title>38&#45;&gt;0</title>
<path fill="none" stroke="grey" stroke-width="2" d="M1142.01,-143.98C1150.95,-124.49 1161.18,-92.6 1145,-72 1123.06,-44.06 1021.4,-28.97 965.35,-22.64"/>
<polygon fill="grey" stroke="grey" stroke-width="2" points="965.43,-19.13 955.11,-21.53 964.68,-26.09 965.43,-19.13"/>
</g>
<!-- 38&#45;&gt;39 -->
<g id="edge90" class="edge">
<title>38&#45;&gt;39</title>
<path fill="none" stroke="grey" stroke-width="2" d="M1176.54,-143.88C1201.2,-134.18 1232.22,-121.98 1258.25,-111.74"/>
<polygon fill="grey" stroke="grey" stroke-width="2" points="1259.57,-114.99 1267.6,-108.07 1257.01,-108.47 1259.57,-114.99"/>
</g>
<!-- 39&#45;&gt;0 -->
<g id="edge25" class="edge">
<title>39&#45;&gt;0</title>
<path fill="none" stroke="grey" stroke-width="2" d="M1264.29,-76.81C1257.18,-75.1 1249.91,-73.44 1243,-72 1143.14,-51.15 1024.14,-32.9 965.08,-24.28"/>
<polygon fill="grey" stroke="grey" stroke-width="2" points="965.5,-20.8 955.1,-22.83 964.49,-27.73 965.5,-20.8"/>
</g>
</g>
</svg>
