<?xml version="1.0" encoding="UTF-8" standalone="no"?>
<!DOCTYPE svg PUBLIC "-//W3C//DTD SVG 1.1//EN"
 "http://www.w3.org/Graphics/SVG/1.1/DTD/svg11.dtd">
<!-- Generated by graphviz version 2.50.0 (20211209.0339)
 -->
<!-- Title: snakemake_dag Pages: 1 -->
<svg width="1824pt" height="836pt"
 viewBox="0.00 0.00 1824.00 836.00" xmlns="http://www.w3.org/2000/svg" xmlns:xlink="http://www.w3.org/1999/xlink">
<g id="graph0" class="graph" transform="scale(1 1) rotate(0) translate(4 832)">
<title>snakemake_dag</title>
<polygon fill="white" stroke="transparent" points="-4,4 -4,-832 1820,-832 1820,4 -4,4"/>
<!-- 0 -->
<g id="node1" class="node">
<title>0</title>
<path fill="none" stroke="#56d87b" stroke-width="2" d="M677,-36C677,-36 647,-36 647,-36 641,-36 635,-30 635,-24 635,-24 635,-12 635,-12 635,-6 641,0 647,0 647,0 677,0 677,0 683,0 689,-6 689,-12 689,-12 689,-24 689,-24 689,-30 683,-36 677,-36"/>
<text text-anchor="middle" x="662" y="-15.5" font-family="sans" font-size="10.00">all</text>
</g>
<!-- 1 -->
<g id="node2" class="node">
<title>1</title>
<path fill="none" stroke="#d85656" stroke-width="2" d="M42,-108C42,-108 12,-108 12,-108 6,-108 0,-102 0,-96 0,-96 0,-84 0,-84 0,-78 6,-72 12,-72 12,-72 42,-72 42,-72 48,-72 54,-78 54,-84 54,-84 54,-96 54,-96 54,-102 48,-108 42,-108"/>
<text text-anchor="middle" x="27" y="-87.5" font-family="sans" font-size="10.00">fastqc</text>
</g>
<!-- 1&#45;&gt;0 -->
<g id="edge1" class="edge">
<title>1&#45;&gt;0</title>
<path fill="none" stroke="grey" stroke-width="2" d="M54.14,-74.97C57.07,-73.82 60.06,-72.8 63,-72 169.89,-43.03 511.01,-25.67 624.71,-20.58"/>
<polygon fill="grey" stroke="grey" stroke-width="2" points="625.16,-24.07 634.99,-20.13 624.85,-17.07 625.16,-24.07"/>
</g>
<!-- 2 -->
<g id="node3" class="node">
<title>2</title>
<path fill="none" stroke="#78d856" stroke-width="2" d="M139.5,-108C139.5,-108 84.5,-108 84.5,-108 78.5,-108 72.5,-102 72.5,-96 72.5,-96 72.5,-84 72.5,-84 72.5,-78 78.5,-72 84.5,-72 84.5,-72 139.5,-72 139.5,-72 145.5,-72 151.5,-78 151.5,-84 151.5,-84 151.5,-96 151.5,-96 151.5,-102 145.5,-108 139.5,-108"/>
<text text-anchor="middle" x="112" y="-87.5" font-family="sans" font-size="10.00">fastq_screen</text>
</g>
<!-- 2&#45;&gt;0 -->
<g id="edge9" class="edge">
<title>2&#45;&gt;0</title>
<path fill="none" stroke="grey" stroke-width="2" d="M151.57,-75.56C156.4,-74.21 161.29,-72.98 166,-72 334.93,-36.75 541.39,-24.26 624.61,-20.46"/>
<polygon fill="grey" stroke="grey" stroke-width="2" points="624.99,-23.95 634.82,-20.01 624.68,-16.95 624.99,-23.95"/>
</g>
<!-- 3 -->
<g id="node4" class="node">
<title>3</title>
<path fill="none" stroke="#56d8b1" stroke-width="2" d="M577,-612C577,-612 547,-612 547,-612 541,-612 535,-606 535,-600 535,-600 535,-588 535,-588 535,-582 541,-576 547,-576 547,-576 577,-576 577,-576 583,-576 589,-582 589,-588 589,-588 589,-600 589,-600 589,-606 583,-612 577,-612"/>
<text text-anchor="middle" x="562" y="-591.5" font-family="sans" font-size="10.00">banlist</text>
</g>
<!-- 3&#45;&gt;0 -->
<g id="edge14" class="edge">
<title>3&#45;&gt;0</title>
<path fill="none" stroke="grey" stroke-width="2" d="M534.83,-588.95C447.56,-575.18 180,-526.79 180,-451 180,-451 180,-451 180,-161 180,-109.56 208.93,-96.81 254,-72 317.44,-37.08 536.33,-24.23 624.63,-20.39"/>
<polygon fill="grey" stroke="grey" stroke-width="2" points="624.89,-23.89 634.73,-19.97 624.59,-16.89 624.89,-23.89"/>
</g>
<!-- 7 -->
<g id="node8" class="node">
<title>7</title>
<path fill="none" stroke="#d8bc56" stroke-width="2" d="M378,-468C378,-468 348,-468 348,-468 342,-468 336,-462 336,-456 336,-456 336,-444 336,-444 336,-438 342,-432 348,-432 348,-432 378,-432 378,-432 384,-432 390,-438 390,-444 390,-444 390,-456 390,-456 390,-462 384,-468 378,-468"/>
<text text-anchor="middle" x="363" y="-447.5" font-family="sans" font-size="10.00">tracks</text>
</g>
<!-- 3&#45;&gt;7 -->
<g id="edge29" class="edge">
<title>3&#45;&gt;7</title>
<path fill="none" stroke="grey" stroke-width="2" d="M534.61,-578.57C516.17,-568.49 491.55,-554.31 471,-540 441.83,-519.68 410.73,-493.52 389.43,-474.83"/>
<polygon fill="grey" stroke="grey" stroke-width="2" points="391.58,-472.06 381.77,-468.06 386.94,-477.3 391.58,-472.06"/>
</g>
<!-- 8 -->
<g id="node9" class="node">
<title>8</title>
<path fill="none" stroke="#5682d8" stroke-width="2" d="M522,-540C522,-540 492,-540 492,-540 486,-540 480,-534 480,-528 480,-528 480,-516 480,-516 480,-510 486,-504 492,-504 492,-504 522,-504 522,-504 528,-504 534,-510 534,-516 534,-516 534,-528 534,-528 534,-534 528,-540 522,-540"/>
<text text-anchor="middle" x="507" y="-519.5" font-family="sans" font-size="10.00">index</text>
</g>
<!-- 3&#45;&gt;8 -->
<g id="edge30" class="edge">
<title>3&#45;&gt;8</title>
<path fill="none" stroke="grey" stroke-width="2" d="M548.4,-575.7C541.88,-567.39 533.93,-557.28 526.75,-548.14"/>
<polygon fill="grey" stroke="grey" stroke-width="2" points="529.37,-545.81 520.44,-540.1 523.87,-550.13 529.37,-545.81"/>
</g>
<!-- 9 -->
<g id="node10" class="node">
<title>9</title>
<path fill="none" stroke="#56b9d8" stroke-width="2" d="M291.5,-324C291.5,-324 220.5,-324 220.5,-324 214.5,-324 208.5,-318 208.5,-312 208.5,-312 208.5,-300 208.5,-300 208.5,-294 214.5,-288 220.5,-288 220.5,-288 291.5,-288 291.5,-288 297.5,-288 303.5,-294 303.5,-300 303.5,-300 303.5,-312 303.5,-312 303.5,-318 297.5,-324 291.5,-324"/>
<text text-anchor="middle" x="256" y="-303.5" font-family="sans" font-size="10.00">preseq_lcextrap</text>
</g>
<!-- 3&#45;&gt;9 -->
<g id="edge31" class="edge">
<title>3&#45;&gt;9</title>
<path fill="none" stroke="grey" stroke-width="2" d="M534.83,-586.31C485.61,-572.75 381.73,-537.25 327,-468 294.21,-426.51 273.3,-367.52 263.2,-333.67"/>
<polygon fill="grey" stroke="grey" stroke-width="2" points="266.55,-332.65 260.41,-324.01 259.82,-334.59 266.55,-332.65"/>
</g>
<!-- 13 -->
<g id="node14" class="node">
<title>13</title>
<path fill="none" stroke="#56d882" stroke-width="2" d="M526,-396C526,-396 492,-396 492,-396 486,-396 480,-390 480,-384 480,-384 480,-372 480,-372 480,-366 486,-360 492,-360 492,-360 526,-360 526,-360 532,-360 538,-366 538,-372 538,-372 538,-384 538,-384 538,-390 532,-396 526,-396"/>
<text text-anchor="middle" x="509" y="-375.5" font-family="sans" font-size="10.00">gopeaks</text>
</g>
<!-- 3&#45;&gt;13 -->
<g id="edge34" class="edge">
<title>3&#45;&gt;13</title>
<path fill="none" stroke="grey" stroke-width="2" d="M558.64,-575.87C555.04,-557.91 549.03,-528.87 543,-504 534.79,-470.15 524.07,-431.51 516.88,-406.26"/>
<polygon fill="grey" stroke="grey" stroke-width="2" points="520.15,-404.96 514.03,-396.31 513.42,-406.89 520.15,-404.96"/>
</g>
<!-- 14 -->
<g id="node15" class="node">
<title>14</title>
<path fill="none" stroke="#56d8a2" stroke-width="2" d="M632,-468C632,-468 602,-468 602,-468 596,-468 590,-462 590,-456 590,-456 590,-444 590,-444 590,-438 596,-432 602,-432 602,-432 632,-432 632,-432 638,-432 644,-438 644,-444 644,-444 644,-456 644,-456 644,-462 638,-468 632,-468"/>
<text text-anchor="middle" x="617" y="-447.5" font-family="sans" font-size="10.00">macs2</text>
</g>
<!-- 3&#45;&gt;14 -->
<g id="edge36" class="edge">
<title>3&#45;&gt;14</title>
<path fill="none" stroke="grey" stroke-width="2" d="M568.63,-575.87C578.09,-551.46 595.53,-506.43 606.68,-477.64"/>
<polygon fill="grey" stroke="grey" stroke-width="2" points="609.99,-478.78 610.34,-468.19 603.47,-476.25 609.99,-478.78"/>
</g>
<!-- 15 -->
<g id="node16" class="node">
<title>15</title>
<path fill="none" stroke="#56d89a" stroke-width="2" d="M1164,-396C1164,-396 1104,-396 1104,-396 1098,-396 1092,-390 1092,-384 1092,-384 1092,-372 1092,-372 1092,-366 1098,-360 1104,-360 1104,-360 1164,-360 1164,-360 1170,-360 1176,-366 1176,-372 1176,-372 1176,-384 1176,-384 1176,-390 1170,-396 1164,-396"/>
<text text-anchor="middle" x="1134" y="-375.5" font-family="sans" font-size="10.00">seacr_relaxed</text>
</g>
<!-- 3&#45;&gt;15 -->
<g id="edge38" class="edge">
<title>3&#45;&gt;15</title>
<path fill="none" stroke="grey" stroke-width="2" d="M589.26,-591.36C673.82,-586.04 930.7,-567.93 1009,-540 1065.09,-519.99 1089.93,-518.18 1122,-468 1133.65,-449.77 1136.2,-425.15 1136.09,-406.43"/>
<polygon fill="grey" stroke="grey" stroke-width="2" points="1139.58,-406.06 1135.76,-396.18 1132.58,-406.29 1139.58,-406.06"/>
</g>
<!-- 17 -->
<g id="node18" class="node">
<title>17</title>
<path fill="none" stroke="#d87d56" stroke-width="2" d="M988,-540C988,-540 944,-540 944,-540 938,-540 932,-534 932,-528 932,-528 932,-516 932,-516 932,-510 938,-504 944,-504 944,-504 988,-504 988,-504 994,-504 1000,-510 1000,-516 1000,-516 1000,-528 1000,-528 1000,-534 994,-540 988,-540"/>
<text text-anchor="middle" x="966" y="-519.5" font-family="sans" font-size="10.00">name_sort</text>
</g>
<!-- 3&#45;&gt;17 -->
<g id="edge41" class="edge">
<title>3&#45;&gt;17</title>
<path fill="none" stroke="grey" stroke-width="2" d="M589.13,-588.3C657.58,-576.44 837.75,-545.22 921.73,-530.67"/>
<polygon fill="grey" stroke="grey" stroke-width="2" points="922.47,-534.09 931.73,-528.94 921.27,-527.2 922.47,-534.09"/>
</g>
<!-- 18 -->
<g id="node19" class="node">
<title>18</title>
<path fill="none" stroke="#59d856" stroke-width="2" d="M1294,-396C1294,-396 1226,-396 1226,-396 1220,-396 1214,-390 1214,-384 1214,-384 1214,-372 1214,-372 1214,-366 1220,-360 1226,-360 1226,-360 1294,-360 1294,-360 1300,-360 1306,-366 1306,-372 1306,-372 1306,-384 1306,-384 1306,-390 1300,-396 1294,-396"/>
<text text-anchor="middle" x="1260" y="-375.5" font-family="sans" font-size="10.00">seacr_stringent</text>
</g>
<!-- 3&#45;&gt;18 -->
<g id="edge43" class="edge">
<title>3&#45;&gt;18</title>
<path fill="none" stroke="grey" stroke-width="2" d="M589.05,-592.48C664.96,-590.52 886.03,-581.41 1064,-540 1154.39,-518.97 1206.88,-544.1 1260,-468 1272.46,-450.15 1271.2,-424.98 1267.56,-405.97"/>
<polygon fill="grey" stroke="grey" stroke-width="2" points="1270.95,-405.11 1265.36,-396.12 1264.12,-406.64 1270.95,-405.11"/>
</g>
<!-- 4 -->
<g id="node5" class="node">
<title>4</title>
<path fill="none" stroke="#56d863" stroke-width="2" d="M580,-684C580,-684 544,-684 544,-684 538,-684 532,-678 532,-672 532,-672 532,-660 532,-660 532,-654 538,-648 544,-648 544,-648 580,-648 580,-648 586,-648 592,-654 592,-660 592,-660 592,-672 592,-672 592,-678 586,-684 580,-684"/>
<text text-anchor="middle" x="562" y="-663.5" font-family="sans" font-size="10.00">markdup</text>
</g>
<!-- 4&#45;&gt;3 -->
<g id="edge25" class="edge">
<title>4&#45;&gt;3</title>
<path fill="none" stroke="grey" stroke-width="2" d="M562,-647.7C562,-639.98 562,-630.71 562,-622.11"/>
<polygon fill="grey" stroke="grey" stroke-width="2" points="565.5,-622.1 562,-612.1 558.5,-622.1 565.5,-622.1"/>
</g>
<!-- 5 -->
<g id="node6" class="node">
<title>5</title>
<path fill="none" stroke="#568ad8" stroke-width="2" d="M577,-756C577,-756 547,-756 547,-756 541,-756 535,-750 535,-744 535,-744 535,-732 535,-732 535,-726 541,-720 547,-720 547,-720 577,-720 577,-720 583,-720 589,-726 589,-732 589,-732 589,-744 589,-744 589,-750 583,-756 577,-756"/>
<text text-anchor="middle" x="562" y="-735.5" font-family="sans" font-size="10.00">sort</text>
</g>
<!-- 5&#45;&gt;4 -->
<g id="edge26" class="edge">
<title>5&#45;&gt;4</title>
<path fill="none" stroke="grey" stroke-width="2" d="M562,-719.7C562,-711.98 562,-702.71 562,-694.11"/>
<polygon fill="grey" stroke="grey" stroke-width="2" points="565.5,-694.1 562,-684.1 558.5,-694.1 565.5,-694.1"/>
</g>
<!-- 6 -->
<g id="node7" class="node">
<title>6</title>
<path fill="none" stroke="#56d85b" stroke-width="2" d="M578,-828C578,-828 546,-828 546,-828 540,-828 534,-822 534,-816 534,-816 534,-804 534,-804 534,-798 540,-792 546,-792 546,-792 578,-792 578,-792 584,-792 590,-798 590,-804 590,-804 590,-816 590,-816 590,-822 584,-828 578,-828"/>
<text text-anchor="middle" x="562" y="-807.5" font-family="sans" font-size="10.00">bowtie2</text>
</g>
<!-- 6&#45;&gt;5 -->
<g id="edge27" class="edge">
<title>6&#45;&gt;5</title>
<path fill="none" stroke="grey" stroke-width="2" d="M562,-791.7C562,-783.98 562,-774.71 562,-766.11"/>
<polygon fill="grey" stroke="grey" stroke-width="2" points="565.5,-766.1 562,-756.1 558.5,-766.1 565.5,-766.1"/>
</g>
<!-- 7&#45;&gt;0 -->
<g id="edge4" class="edge">
<title>7&#45;&gt;0</title>
<path fill="none" stroke="grey" stroke-width="2" d="M358.3,-431.91C340.49,-365.52 280.57,-125.66 329,-72 367.82,-28.99 545.69,-20.81 624.37,-19.31"/>
<polygon fill="grey" stroke="grey" stroke-width="2" points="624.85,-22.8 634.79,-19.13 624.74,-15.8 624.85,-22.8"/>
</g>
<!-- 23 -->
<g id="node24" class="node">
<title>23</title>
<path fill="none" stroke="#bed856" stroke-width="2" d="M408,-324C408,-324 372,-324 372,-324 366,-324 360,-318 360,-312 360,-312 360,-300 360,-300 360,-294 366,-288 372,-288 372,-288 408,-288 408,-288 414,-288 420,-294 420,-300 420,-300 420,-312 420,-312 420,-318 414,-324 408,-324"/>
<text text-anchor="middle" x="390" y="-303.5" font-family="sans" font-size="10.00">heatmap</text>
</g>
<!-- 7&#45;&gt;23 -->
<g id="edge52" class="edge">
<title>7&#45;&gt;23</title>
<path fill="none" stroke="grey" stroke-width="2" d="M366.26,-431.87C370.86,-407.67 379.31,-363.21 384.79,-334.39"/>
<polygon fill="grey" stroke="grey" stroke-width="2" points="388.3,-334.67 386.73,-324.19 381.43,-333.36 388.3,-334.67"/>
</g>
<!-- 8&#45;&gt;7 -->
<g id="edge28" class="edge">
<title>8&#45;&gt;7</title>
<path fill="none" stroke="grey" stroke-width="2" d="M479.91,-507.83C457.23,-496.81 424.64,-480.97 399.63,-468.81"/>
<polygon fill="grey" stroke="grey" stroke-width="2" points="400.98,-465.57 390.45,-464.35 397.92,-471.87 400.98,-465.57"/>
</g>
<!-- 8&#45;&gt;13 -->
<g id="edge33" class="edge">
<title>8&#45;&gt;13</title>
<path fill="none" stroke="grey" stroke-width="2" d="M507.24,-503.87C507.58,-479.67 508.21,-435.21 508.61,-406.39"/>
<polygon fill="grey" stroke="grey" stroke-width="2" points="512.12,-406.24 508.76,-396.19 505.12,-406.14 512.12,-406.24"/>
</g>
<!-- 8&#45;&gt;14 -->
<g id="edge35" class="edge">
<title>8&#45;&gt;14</title>
<path fill="none" stroke="grey" stroke-width="2" d="M533.91,-503.88C548.16,-494.81 565.85,-483.55 581.24,-473.76"/>
<polygon fill="grey" stroke="grey" stroke-width="2" points="583.43,-476.51 589.99,-468.19 579.67,-470.61 583.43,-476.51"/>
</g>
<!-- 9&#45;&gt;0 -->
<g id="edge18" class="edge">
<title>9&#45;&gt;0</title>
<path fill="none" stroke="grey" stroke-width="2" d="M251.51,-287.77C241.45,-244.76 222.24,-131.83 280,-72 326.98,-23.33 537.81,-18.47 624.54,-18.59"/>
<polygon fill="grey" stroke="grey" stroke-width="2" points="624.71,-22.09 634.73,-18.62 624.74,-15.09 624.71,-22.09"/>
</g>
<!-- 10 -->
<g id="node11" class="node">
<title>10</title>
<path fill="none" stroke="#56b1d8" stroke-width="2" d="M483.5,-468C483.5,-468 420.5,-468 420.5,-468 414.5,-468 408.5,-462 408.5,-456 408.5,-456 408.5,-444 408.5,-444 408.5,-438 414.5,-432 420.5,-432 420.5,-432 483.5,-432 483.5,-432 489.5,-432 495.5,-438 495.5,-444 495.5,-444 495.5,-456 495.5,-456 495.5,-462 489.5,-468 483.5,-468"/>
<text text-anchor="middle" x="452" y="-447.5" font-family="sans" font-size="10.00">wget_gopeaks</text>
</g>
<!-- 10&#45;&gt;0 -->
<g id="edge19" class="edge">
<title>10&#45;&gt;0</title>
<path fill="none" stroke="grey" stroke-width="2" d="M452,-431.95C452,-405.29 452,-352.11 452,-307 452,-307 452,-307 452,-161 452,-118.16 457.28,-100.79 489,-72 526.74,-37.75 586.13,-25.62 624.57,-21.34"/>
<polygon fill="grey" stroke="grey" stroke-width="2" points="625.21,-24.79 634.82,-20.32 624.53,-17.82 625.21,-24.79"/>
</g>
<!-- 10&#45;&gt;13 -->
<g id="edge32" class="edge">
<title>10&#45;&gt;13</title>
<path fill="none" stroke="grey" stroke-width="2" d="M466.09,-431.7C472.92,-423.3 481.26,-413.07 488.76,-403.86"/>
<polygon fill="grey" stroke="grey" stroke-width="2" points="491.47,-406.07 495.07,-396.1 486.04,-401.65 491.47,-406.07"/>
</g>
<!-- 11 -->
<g id="node12" class="node">
<title>11</title>
<path fill="none" stroke="#d89556" stroke-width="2" d="M412,-108C412,-108 372,-108 372,-108 366,-108 360,-102 360,-96 360,-96 360,-84 360,-84 360,-78 366,-72 372,-72 372,-72 412,-72 412,-72 418,-72 424,-78 424,-84 424,-84 424,-96 424,-96 424,-102 418,-108 412,-108"/>
<text text-anchor="middle" x="392" y="-87.5" font-family="sans" font-size="10.00">get_seacr</text>
</g>
<!-- 11&#45;&gt;0 -->
<g id="edge3" class="edge">
<title>11&#45;&gt;0</title>
<path fill="none" stroke="grey" stroke-width="2" d="M424,-76.61C428.67,-74.97 433.44,-73.38 438,-72 502.95,-52.39 580.27,-35.48 624.99,-26.31"/>
<polygon fill="grey" stroke="grey" stroke-width="2" points="625.72,-29.74 634.82,-24.32 624.33,-22.88 625.72,-29.74"/>
</g>
<!-- 12 -->
<g id="node13" class="node">
<title>12</title>
<path fill="none" stroke="#9fd856" stroke-width="2" d="M1238.5,-468C1238.5,-468 1181.5,-468 1181.5,-468 1175.5,-468 1169.5,-462 1169.5,-456 1169.5,-456 1169.5,-444 1169.5,-444 1169.5,-438 1175.5,-432 1181.5,-432 1181.5,-432 1238.5,-432 1238.5,-432 1244.5,-432 1250.5,-438 1250.5,-444 1250.5,-444 1250.5,-456 1250.5,-456 1250.5,-462 1244.5,-468 1238.5,-468"/>
<text text-anchor="middle" x="1210" y="-447.5" font-family="sans" font-size="10.00">get_seacr_14</text>
</g>
<!-- 12&#45;&gt;0 -->
<g id="edge8" class="edge">
<title>12&#45;&gt;0</title>
<path fill="none" stroke="grey" stroke-width="2" d="M1250.7,-448.2C1386.58,-444.46 1816,-423.43 1816,-307 1816,-307 1816,-307 1816,-161 1816,-114.96 1802.47,-95.71 1763,-72 1670.21,-16.27 881.51,-17.65 699.41,-18.72"/>
<polygon fill="grey" stroke="grey" stroke-width="2" points="699.24,-15.22 689.26,-18.79 699.28,-22.22 699.24,-15.22"/>
</g>
<!-- 12&#45;&gt;15 -->
<g id="edge39" class="edge">
<title>12&#45;&gt;15</title>
<path fill="none" stroke="grey" stroke-width="2" d="M1191.21,-431.7C1181.83,-423.05 1170.32,-412.45 1160.09,-403.03"/>
<polygon fill="grey" stroke="grey" stroke-width="2" points="1162.3,-400.3 1152.57,-396.1 1157.55,-405.45 1162.3,-400.3"/>
</g>
<!-- 12&#45;&gt;18 -->
<g id="edge44" class="edge">
<title>12&#45;&gt;18</title>
<path fill="none" stroke="grey" stroke-width="2" d="M1222.36,-431.7C1228.23,-423.47 1235.37,-413.48 1241.84,-404.42"/>
<polygon fill="grey" stroke="grey" stroke-width="2" points="1244.82,-406.28 1247.78,-396.1 1239.12,-402.21 1244.82,-406.28"/>
</g>
<!-- 13&#45;&gt;0 -->
<g id="edge11" class="edge">
<title>13&#45;&gt;0</title>
<path fill="none" stroke="grey" stroke-width="2" d="M505.16,-359.61C499.6,-332.94 490,-280.27 490,-235 490,-235 490,-235 490,-161 490,-120.03 486.22,-102.11 514,-72 542.85,-40.73 591.43,-27.89 625.03,-22.63"/>
<polygon fill="grey" stroke="grey" stroke-width="2" points="625.52,-26.1 634.93,-21.23 624.54,-19.17 625.52,-26.1"/>
</g>
<!-- 21 -->
<g id="node22" class="node">
<title>21</title>
<path fill="none" stroke="#68d856" stroke-width="2" d="M869,-324C869,-324 825,-324 825,-324 819,-324 813,-318 813,-312 813,-312 813,-300 813,-300 813,-294 819,-288 825,-288 825,-288 869,-288 869,-288 875,-288 881,-294 881,-300 881,-300 881,-312 881,-312 881,-318 875,-324 869,-324"/>
<text text-anchor="middle" x="847" y="-303.5" font-family="sans" font-size="10.00">consensus</text>
</g>
<!-- 13&#45;&gt;21 -->
<g id="edge48" class="edge">
<title>13&#45;&gt;21</title>
<path fill="none" stroke="grey" stroke-width="2" d="M538.11,-370.97C597.48,-358.68 732.85,-330.64 803.01,-316.11"/>
<polygon fill="grey" stroke="grey" stroke-width="2" points="803.79,-319.52 812.87,-314.07 802.37,-312.67 803.79,-319.52"/>
</g>
<!-- 29 -->
<g id="node30" class="node">
<title>29</title>
<path fill="none" stroke="#d8d356" stroke-width="2" d="M697,-252C697,-252 569,-252 569,-252 563,-252 557,-246 557,-240 557,-240 557,-228 557,-228 557,-222 563,-216 569,-216 569,-216 697,-216 697,-216 703,-216 709,-222 709,-228 709,-228 709,-240 709,-240 709,-246 703,-252 697,-252"/>
<text text-anchor="middle" x="633" y="-231.5" font-family="sans" font-size="10.00">gopeaks_consensus_counts</text>
</g>
<!-- 13&#45;&gt;29 -->
<g id="edge61" class="edge">
<title>13&#45;&gt;29</title>
<path fill="none" stroke="grey" stroke-width="2" d="M523.96,-359.87C545.74,-334.92 586.33,-288.45 611.37,-259.77"/>
<polygon fill="grey" stroke="grey" stroke-width="2" points="614.05,-262.02 617.99,-252.19 608.78,-257.42 614.05,-262.02"/>
</g>
<!-- 14&#45;&gt;0 -->
<g id="edge13" class="edge">
<title>14&#45;&gt;0</title>
<path fill="none" stroke="grey" stroke-width="2" d="M607.02,-431.92C585.99,-393.99 539.67,-299.54 548,-216 554.48,-151.04 539.82,-125.66 577,-72 588.87,-54.87 608.25,-42.17 625.5,-33.5"/>
<polygon fill="grey" stroke="grey" stroke-width="2" points="627.27,-36.54 634.81,-29.09 624.28,-30.21 627.27,-36.54"/>
</g>
<!-- 22 -->
<g id="node23" class="node">
<title>22</title>
<path fill="none" stroke="#d86e56" stroke-width="2" d="M868,-396C868,-396 826,-396 826,-396 820,-396 814,-390 814,-384 814,-384 814,-372 814,-372 814,-366 820,-360 826,-360 826,-360 868,-360 868,-360 874,-360 880,-366 880,-372 880,-372 880,-384 880,-384 880,-390 874,-396 868,-396"/>
<text text-anchor="middle" x="847" y="-375.5" font-family="sans" font-size="10.00">fix_macs2</text>
</g>
<!-- 14&#45;&gt;22 -->
<g id="edge51" class="edge">
<title>14&#45;&gt;22</title>
<path fill="none" stroke="grey" stroke-width="2" d="M644.29,-440.7C683.75,-428.68 757.15,-406.35 803.96,-392.1"/>
<polygon fill="grey" stroke="grey" stroke-width="2" points="805.26,-395.36 813.81,-389.1 803.22,-388.66 805.26,-395.36"/>
</g>
<!-- 15&#45;&gt;0 -->
<g id="edge12" class="edge">
<title>15&#45;&gt;0</title>
<path fill="none" stroke="grey" stroke-width="2" d="M1176.04,-366.89C1185.56,-364.62 1195.63,-362.22 1205,-360 1323.81,-331.9 1740,-357.09 1740,-235 1740,-235 1740,-235 1740,-161 1740,-117.81 1736.54,-96.54 1701,-72 1617.21,-14.13 874.74,-17.09 699.12,-18.61"/>
<polygon fill="grey" stroke="grey" stroke-width="2" points="699.04,-15.11 689.08,-18.71 699.11,-22.11 699.04,-15.11"/>
</g>
<!-- 15&#45;&gt;21 -->
<g id="edge50" class="edge">
<title>15&#45;&gt;21</title>
<path fill="none" stroke="grey" stroke-width="2" d="M1091.96,-366.75C1038.17,-353.63 945.43,-331.01 890.8,-317.68"/>
<polygon fill="grey" stroke="grey" stroke-width="2" points="891.61,-314.28 881.06,-315.31 889.95,-321.08 891.61,-314.28"/>
</g>
<!-- 31 -->
<g id="node32" class="node">
<title>31</title>
<path fill="none" stroke="#d87556" stroke-width="2" d="M1203,-252C1203,-252 1049,-252 1049,-252 1043,-252 1037,-246 1037,-240 1037,-240 1037,-228 1037,-228 1037,-222 1043,-216 1049,-216 1049,-216 1203,-216 1203,-216 1209,-216 1215,-222 1215,-228 1215,-228 1215,-240 1215,-240 1215,-246 1209,-252 1203,-252"/>
<text text-anchor="middle" x="1126" y="-231.5" font-family="sans" font-size="10.00">seacr_relaxed_consensus_counts</text>
</g>
<!-- 15&#45;&gt;31 -->
<g id="edge67" class="edge">
<title>15&#45;&gt;31</title>
<path fill="none" stroke="grey" stroke-width="2" d="M1133.04,-359.87C1131.67,-335.67 1129.17,-291.21 1127.54,-262.39"/>
<polygon fill="grey" stroke="grey" stroke-width="2" points="1131.03,-261.98 1126.97,-252.19 1124.04,-262.37 1131.03,-261.98"/>
</g>
<!-- 16 -->
<g id="node17" class="node">
<title>16</title>
<path fill="none" stroke="#70d856" stroke-width="2" d="M1101,-468C1101,-468 1063,-468 1063,-468 1057,-468 1051,-462 1051,-456 1051,-456 1051,-444 1051,-444 1051,-438 1057,-432 1063,-432 1063,-432 1101,-432 1101,-432 1107,-432 1113,-438 1113,-444 1113,-444 1113,-456 1113,-456 1113,-462 1107,-468 1101,-468"/>
<text text-anchor="middle" x="1082" y="-447.5" font-family="sans" font-size="10.00">bedgraph</text>
</g>
<!-- 16&#45;&gt;15 -->
<g id="edge37" class="edge">
<title>16&#45;&gt;15</title>
<path fill="none" stroke="grey" stroke-width="2" d="M1094.85,-431.7C1101.03,-423.39 1108.54,-413.28 1115.32,-404.14"/>
<polygon fill="grey" stroke="grey" stroke-width="2" points="1118.14,-406.22 1121.29,-396.1 1112.52,-402.04 1118.14,-406.22"/>
</g>
<!-- 16&#45;&gt;18 -->
<g id="edge42" class="edge">
<title>16&#45;&gt;18</title>
<path fill="none" stroke="grey" stroke-width="2" d="M1113.01,-436.81C1138.89,-426.63 1176.37,-411.89 1207,-399.84"/>
<polygon fill="grey" stroke="grey" stroke-width="2" points="1208.66,-402.95 1216.68,-396.03 1206.1,-396.44 1208.66,-402.95"/>
</g>
<!-- 17&#45;&gt;16 -->
<g id="edge40" class="edge">
<title>17&#45;&gt;16</title>
<path fill="none" stroke="grey" stroke-width="2" d="M994.38,-503.88C1009.54,-494.72 1028.41,-483.34 1044.74,-473.48"/>
<polygon fill="grey" stroke="grey" stroke-width="2" points="1046.76,-476.35 1053.51,-468.19 1043.14,-470.36 1046.76,-476.35"/>
</g>
<!-- 17&#45;&gt;29 -->
<g id="edge60" class="edge">
<title>17&#45;&gt;29</title>
<path fill="none" stroke="grey" stroke-width="2" d="M942.54,-503.85C910.71,-480.35 852.38,-436.42 805,-396 750.55,-349.55 690.18,-291.39 657.42,-259.22"/>
<polygon fill="grey" stroke="grey" stroke-width="2" points="659.67,-256.52 650.09,-252 654.76,-261.51 659.67,-256.52"/>
</g>
<!-- 30 -->
<g id="node31" class="node">
<title>30</title>
<path fill="none" stroke="#a7d856" stroke-width="2" d="M1006.5,-252C1006.5,-252 887.5,-252 887.5,-252 881.5,-252 875.5,-246 875.5,-240 875.5,-240 875.5,-228 875.5,-228 875.5,-222 881.5,-216 887.5,-216 887.5,-216 1006.5,-216 1006.5,-216 1012.5,-216 1018.5,-222 1018.5,-228 1018.5,-228 1018.5,-240 1018.5,-240 1018.5,-246 1012.5,-252 1006.5,-252"/>
<text text-anchor="middle" x="947" y="-231.5" font-family="sans" font-size="10.00">macs2_consensus_counts</text>
</g>
<!-- 17&#45;&gt;30 -->
<g id="edge63" class="edge">
<title>17&#45;&gt;30</title>
<path fill="none" stroke="grey" stroke-width="2" d="M964.87,-503.97C961.7,-456.29 952.73,-321.18 948.84,-262.63"/>
<polygon fill="grey" stroke="grey" stroke-width="2" points="952.3,-262.05 948.15,-252.31 945.32,-262.52 952.3,-262.05"/>
</g>
<!-- 17&#45;&gt;31 -->
<g id="edge66" class="edge">
<title>17&#45;&gt;31</title>
<path fill="none" stroke="grey" stroke-width="2" d="M968.23,-503.88C974.99,-452.99 995.6,-305.13 1009,-288 1019.74,-274.27 1034.83,-263.99 1050.61,-256.32"/>
<polygon fill="grey" stroke="grey" stroke-width="2" points="1052.28,-259.41 1059.95,-252.11 1049.4,-253.03 1052.28,-259.41"/>
</g>
<!-- 32 -->
<g id="node33" class="node">
<title>32</title>
<path fill="none" stroke="#56d0d8" stroke-width="2" d="M1405.5,-252C1405.5,-252 1244.5,-252 1244.5,-252 1238.5,-252 1232.5,-246 1232.5,-240 1232.5,-240 1232.5,-228 1232.5,-228 1232.5,-222 1238.5,-216 1244.5,-216 1244.5,-216 1405.5,-216 1405.5,-216 1411.5,-216 1417.5,-222 1417.5,-228 1417.5,-228 1417.5,-240 1417.5,-240 1417.5,-246 1411.5,-252 1405.5,-252"/>
<text text-anchor="middle" x="1325" y="-231.5" font-family="sans" font-size="10.00">seacr_stringent_consensus_counts</text>
</g>
<!-- 17&#45;&gt;32 -->
<g id="edge70" class="edge">
<title>17&#45;&gt;32</title>
<path fill="none" stroke="grey" stroke-width="2" d="M974.84,-503.95C992.02,-472.17 1032.67,-403.22 1083,-360 1138.56,-312.29 1215.45,-276.56 1267.54,-255.77"/>
<polygon fill="grey" stroke="grey" stroke-width="2" points="1268.94,-258.98 1276.97,-252.07 1266.38,-252.47 1268.94,-258.98"/>
</g>
<!-- 18&#45;&gt;0 -->
<g id="edge10" class="edge">
<title>18&#45;&gt;0</title>
<path fill="none" stroke="grey" stroke-width="2" d="M1306.11,-377.91C1381.59,-377.86 1535.01,-371.27 1654,-324 1717.05,-298.96 1778,-302.84 1778,-235 1778,-235 1778,-235 1778,-161 1778,-116.27 1768.73,-96.03 1731,-72 1642.5,-15.62 877.89,-17.47 699.22,-18.69"/>
<polygon fill="grey" stroke="grey" stroke-width="2" points="698.99,-15.19 689.02,-18.76 699.04,-22.19 698.99,-15.19"/>
</g>
<!-- 18&#45;&gt;21 -->
<g id="edge47" class="edge">
<title>18&#45;&gt;21</title>
<path fill="none" stroke="grey" stroke-width="2" d="M1213.69,-365.99C1204.22,-363.88 1194.31,-361.78 1185,-360 1080.28,-339.95 956.23,-321.96 891.45,-313"/>
<polygon fill="grey" stroke="grey" stroke-width="2" points="891.58,-309.48 881.19,-311.59 890.62,-316.42 891.58,-309.48"/>
</g>
<!-- 18&#45;&gt;32 -->
<g id="edge69" class="edge">
<title>18&#45;&gt;32</title>
<path fill="none" stroke="grey" stroke-width="2" d="M1267.84,-359.87C1279.02,-335.46 1299.63,-290.43 1312.81,-261.64"/>
<polygon fill="grey" stroke="grey" stroke-width="2" points="1316.15,-262.74 1317.13,-252.19 1309.79,-259.83 1316.15,-262.74"/>
</g>
<!-- 19 -->
<g id="node20" class="node">
<title>19</title>
<path fill="none" stroke="#d88d56" stroke-width="2" d="M1071.5,-108C1071.5,-108 994.5,-108 994.5,-108 988.5,-108 982.5,-102 982.5,-96 982.5,-96 982.5,-84 982.5,-84 982.5,-78 988.5,-72 994.5,-72 994.5,-72 1071.5,-72 1071.5,-72 1077.5,-72 1083.5,-78 1083.5,-84 1083.5,-84 1083.5,-96 1083.5,-96 1083.5,-102 1077.5,-108 1071.5,-108"/>
<text text-anchor="middle" x="1033" y="-87.5" font-family="sans" font-size="10.00">exclusive_counts</text>
</g>
<!-- 19&#45;&gt;0 -->
<g id="edge2" class="edge">
<title>19&#45;&gt;0</title>
<path fill="none" stroke="grey" stroke-width="2" d="M982.36,-75.31C977.52,-74.14 972.67,-73.01 968,-72 871.77,-51.12 757.1,-33.06 699.28,-24.42"/>
<polygon fill="grey" stroke="grey" stroke-width="2" points="699.57,-20.92 689.16,-22.92 698.54,-27.85 699.57,-20.92"/>
</g>
<!-- 20 -->
<g id="node21" class="node">
<title>20</title>
<path fill="none" stroke="#56c9d8" stroke-width="2" d="M1012.5,-180C1012.5,-180 973.5,-180 973.5,-180 967.5,-180 961.5,-174 961.5,-168 961.5,-168 961.5,-156 961.5,-156 961.5,-150 967.5,-144 973.5,-144 973.5,-144 1012.5,-144 1012.5,-144 1018.5,-144 1024.5,-150 1024.5,-156 1024.5,-156 1024.5,-168 1024.5,-168 1024.5,-174 1018.5,-180 1012.5,-180"/>
<text text-anchor="middle" x="993" y="-159.5" font-family="sans" font-size="10.00">intervene</text>
</g>
<!-- 20&#45;&gt;0 -->
<g id="edge17" class="edge">
<title>20&#45;&gt;0</title>
<path fill="none" stroke="grey" stroke-width="2" d="M986.52,-143.9C977.83,-123.4 960.36,-89.61 934,-72 896.01,-46.62 764.68,-29.73 699.41,-22.7"/>
<polygon fill="grey" stroke="grey" stroke-width="2" points="699.47,-19.18 689.15,-21.62 698.73,-26.15 699.47,-19.18"/>
</g>
<!-- 20&#45;&gt;19 -->
<g id="edge45" class="edge">
<title>20&#45;&gt;19</title>
<path fill="none" stroke="grey" stroke-width="2" d="M1002.89,-143.7C1007.49,-135.64 1013.06,-125.89 1018.15,-116.98"/>
<polygon fill="grey" stroke="grey" stroke-width="2" points="1021.3,-118.52 1023.23,-108.1 1015.23,-115.05 1021.3,-118.52"/>
</g>
<!-- 34 -->
<g id="node35" class="node">
<title>34</title>
<path fill="none" stroke="#56a2d8" stroke-width="2" d="M1345.5,-108C1345.5,-108 1248.5,-108 1248.5,-108 1242.5,-108 1236.5,-102 1236.5,-96 1236.5,-96 1236.5,-84 1236.5,-84 1236.5,-78 1242.5,-72 1248.5,-72 1248.5,-72 1345.5,-72 1345.5,-72 1351.5,-72 1357.5,-78 1357.5,-84 1357.5,-84 1357.5,-96 1357.5,-96 1357.5,-102 1351.5,-108 1345.5,-108"/>
<text text-anchor="middle" x="1297" y="-87.5" font-family="sans" font-size="10.00">exclusive_annotation</text>
</g>
<!-- 20&#45;&gt;34 -->
<g id="edge73" class="edge">
<title>20&#45;&gt;34</title>
<path fill="none" stroke="grey" stroke-width="2" d="M1024.59,-154.08C1067.9,-144.55 1148.39,-126.69 1226.44,-108.35"/>
<polygon fill="grey" stroke="grey" stroke-width="2" points="1227.5,-111.69 1236.43,-105.99 1225.9,-104.88 1227.5,-111.69"/>
</g>
<!-- 21&#45;&gt;20 -->
<g id="edge46" class="edge">
<title>21&#45;&gt;20</title>
<path fill="none" stroke="grey" stroke-width="2" d="M846.41,-287.91C846.65,-268.36 849.92,-236.4 867,-216 888.23,-190.63 923.69,-177.18 951.6,-170.18"/>
<polygon fill="grey" stroke="grey" stroke-width="2" points="952.54,-173.56 961.5,-167.89 950.96,-166.74 952.54,-173.56"/>
</g>
<!-- 25 -->
<g id="node26" class="node">
<title>25</title>
<path fill="none" stroke="#d8c356" stroke-width="2" d="M769,-252C769,-252 739,-252 739,-252 733,-252 727,-246 727,-240 727,-240 727,-228 727,-228 727,-222 733,-216 739,-216 739,-216 769,-216 769,-216 775,-216 781,-222 781,-228 781,-228 781,-240 781,-240 781,-246 775,-252 769,-252"/>
<text text-anchor="middle" x="754" y="-231.5" font-family="sans" font-size="10.00">homer</text>
</g>
<!-- 21&#45;&gt;25 -->
<g id="edge54" class="edge">
<title>21&#45;&gt;25</title>
<path fill="none" stroke="grey" stroke-width="2" d="M824.01,-287.7C812.19,-278.8 797.61,-267.82 784.82,-258.2"/>
<polygon fill="grey" stroke="grey" stroke-width="2" points="786.82,-255.32 776.72,-252.1 782.61,-260.91 786.82,-255.32"/>
</g>
<!-- 21&#45;&gt;29 -->
<g id="edge62" class="edge">
<title>21&#45;&gt;29</title>
<path fill="none" stroke="grey" stroke-width="2" d="M812.62,-293.75C780.92,-283.39 733.13,-267.75 694.81,-255.22"/>
<polygon fill="grey" stroke="grey" stroke-width="2" points="695.88,-251.89 685.29,-252.1 693.7,-258.54 695.88,-251.89"/>
</g>
<!-- 21&#45;&gt;30 -->
<g id="edge64" class="edge">
<title>21&#45;&gt;30</title>
<path fill="none" stroke="grey" stroke-width="2" d="M871.46,-287.88C884.3,-278.89 900.2,-267.76 914.09,-258.03"/>
<polygon fill="grey" stroke="grey" stroke-width="2" points="916.26,-260.79 922.44,-252.19 912.24,-255.06 916.26,-260.79"/>
</g>
<!-- 21&#45;&gt;31 -->
<g id="edge68" class="edge">
<title>21&#45;&gt;31</title>
<path fill="none" stroke="grey" stroke-width="2" d="M881.21,-296.42C922.6,-286.03 993.54,-268.23 1048.44,-254.46"/>
<polygon fill="grey" stroke="grey" stroke-width="2" points="1049.29,-257.85 1058.14,-252.03 1047.59,-251.06 1049.29,-257.85"/>
</g>
<!-- 21&#45;&gt;32 -->
<g id="edge71" class="edge">
<title>21&#45;&gt;32</title>
<path fill="none" stroke="grey" stroke-width="2" d="M881.1,-300.52C945.6,-291.98 1090.18,-272.51 1222,-252.29"/>
<polygon fill="grey" stroke="grey" stroke-width="2" points="1222.93,-255.69 1232.28,-250.71 1221.86,-248.77 1222.93,-255.69"/>
</g>
<!-- 36 -->
<g id="node37" class="node">
<title>36</title>
<path fill="none" stroke="#b6d856" stroke-width="2" d="M886.5,-180C886.5,-180 731.5,-180 731.5,-180 725.5,-180 719.5,-174 719.5,-168 719.5,-168 719.5,-156 719.5,-156 719.5,-150 725.5,-144 731.5,-144 731.5,-144 886.5,-144 886.5,-144 892.5,-144 898.5,-150 898.5,-156 898.5,-156 898.5,-168 898.5,-168 898.5,-174 892.5,-180 886.5,-180"/>
<text text-anchor="middle" x="809" y="-159.5" font-family="sans" font-size="10.00">consensus_standard_intersection</text>
</g>
<!-- 21&#45;&gt;36 -->
<g id="edge75" class="edge">
<title>21&#45;&gt;36</title>
<path fill="none" stroke="grey" stroke-width="2" d="M842.42,-287.87C835.91,-263.56 823.94,-218.82 816.23,-190.01"/>
<polygon fill="grey" stroke="grey" stroke-width="2" points="819.57,-188.94 813.6,-180.19 812.8,-190.75 819.57,-188.94"/>
</g>
<!-- 22&#45;&gt;21 -->
<g id="edge49" class="edge">
<title>22&#45;&gt;21</title>
<path fill="none" stroke="grey" stroke-width="2" d="M847,-359.7C847,-351.98 847,-342.71 847,-334.11"/>
<polygon fill="grey" stroke="grey" stroke-width="2" points="850.5,-334.1 847,-324.1 843.5,-334.1 850.5,-334.1"/>
</g>
<!-- 22&#45;&gt;30 -->
<g id="edge65" class="edge">
<title>22&#45;&gt;30</title>
<path fill="none" stroke="grey" stroke-width="2" d="M861.84,-359.72C870.37,-349.54 881.12,-336.29 890,-324 904.91,-303.35 920.41,-278.93 931.48,-260.9"/>
<polygon fill="grey" stroke="grey" stroke-width="2" points="934.62,-262.47 936.83,-252.1 928.64,-258.83 934.62,-262.47"/>
</g>
<!-- 23&#45;&gt;0 -->
<g id="edge6" class="edge">
<title>23&#45;&gt;0</title>
<path fill="none" stroke="grey" stroke-width="2" d="M379.15,-287.98C353.84,-245.93 297.04,-135.94 351,-72 385.64,-30.96 549.71,-21.69 624.58,-19.61"/>
<polygon fill="grey" stroke="grey" stroke-width="2" points="625.05,-23.1 634.96,-19.35 624.87,-16.1 625.05,-23.1"/>
</g>
<!-- 24 -->
<g id="node25" class="node">
<title>24</title>
<path fill="none" stroke="#5673d8" stroke-width="2" d="M652,-180C652,-180 608,-180 608,-180 602,-180 596,-174 596,-168 596,-168 596,-156 596,-156 596,-150 602,-144 608,-144 608,-144 652,-144 652,-144 658,-144 664,-150 664,-156 664,-156 664,-168 664,-168 664,-174 658,-180 652,-180"/>
<text text-anchor="middle" x="630" y="-159.5" font-family="sans" font-size="10.00">zip_homer</text>
</g>
<!-- 24&#45;&gt;0 -->
<g id="edge22" class="edge">
<title>24&#45;&gt;0</title>
<path fill="none" stroke="grey" stroke-width="2" d="M609.62,-143.53C600.19,-134.09 589.99,-121.6 585,-108 579.48,-92.98 577.56,-86.16 585,-72 593.71,-55.43 610.21,-43.03 625.7,-34.41"/>
<polygon fill="grey" stroke="grey" stroke-width="2" points="627.38,-37.48 634.64,-29.77 624.16,-31.27 627.38,-37.48"/>
</g>
<!-- 37 -->
<g id="node38" class="node">
<title>37</title>
<path fill="none" stroke="#d6d856" stroke-width="2" d="M654,-108C654,-108 606,-108 606,-108 600,-108 594,-102 594,-96 594,-96 594,-84 594,-84 594,-78 600,-72 606,-72 606,-72 654,-72 654,-72 660,-72 666,-78 666,-84 666,-84 666,-96 666,-96 666,-102 660,-108 654,-108"/>
<text text-anchor="middle" x="630" y="-87.5" font-family="sans" font-size="10.00">plot_homer</text>
</g>
<!-- 24&#45;&gt;37 -->
<g id="edge76" class="edge">
<title>24&#45;&gt;37</title>
<path fill="none" stroke="grey" stroke-width="2" d="M630,-143.7C630,-135.98 630,-126.71 630,-118.11"/>
<polygon fill="grey" stroke="grey" stroke-width="2" points="633.5,-118.1 630,-108.1 626.5,-118.1 633.5,-118.1"/>
</g>
<!-- 25&#45;&gt;24 -->
<g id="edge53" class="edge">
<title>25&#45;&gt;24</title>
<path fill="none" stroke="grey" stroke-width="2" d="M726.79,-217.64C709.88,-208.09 687.86,-195.67 669.1,-185.07"/>
<polygon fill="grey" stroke="grey" stroke-width="2" points="670.62,-181.91 660.19,-180.04 667.18,-188.01 670.62,-181.91"/>
</g>
<!-- 26 -->
<g id="node27" class="node">
<title>26</title>
<path fill="none" stroke="#566bd8" stroke-width="2" d="M1206.5,-108C1206.5,-108 1113.5,-108 1113.5,-108 1107.5,-108 1101.5,-102 1101.5,-96 1101.5,-96 1101.5,-84 1101.5,-84 1101.5,-78 1107.5,-72 1113.5,-72 1113.5,-72 1206.5,-72 1206.5,-72 1212.5,-72 1218.5,-78 1218.5,-84 1218.5,-84 1218.5,-96 1218.5,-96 1218.5,-102 1212.5,-108 1206.5,-108"/>
<text text-anchor="middle" x="1160" y="-87.5" font-family="sans" font-size="10.00">peak_characteristics</text>
</g>
<!-- 26&#45;&gt;0 -->
<g id="edge23" class="edge">
<title>26&#45;&gt;0</title>
<path fill="none" stroke="grey" stroke-width="2" d="M1101.27,-73.65C1098.48,-73.06 1095.71,-72.51 1093,-72 948.93,-44.98 775.07,-28.43 699.79,-22.03"/>
<polygon fill="grey" stroke="grey" stroke-width="2" points="699.67,-18.51 689.41,-21.16 699.09,-25.49 699.67,-18.51"/>
</g>
<!-- 27 -->
<g id="node28" class="node">
<title>27</title>
<path fill="none" stroke="#56d8c1" stroke-width="2" d="M1661.5,-108C1661.5,-108 1556.5,-108 1556.5,-108 1550.5,-108 1544.5,-102 1544.5,-96 1544.5,-96 1544.5,-84 1544.5,-84 1544.5,-78 1550.5,-72 1556.5,-72 1556.5,-72 1661.5,-72 1661.5,-72 1667.5,-72 1673.5,-78 1673.5,-84 1673.5,-84 1673.5,-96 1673.5,-96 1673.5,-102 1667.5,-108 1661.5,-108"/>
<text text-anchor="middle" x="1609" y="-87.5" font-family="sans" font-size="10.00">plot_consensus_counts</text>
</g>
<!-- 27&#45;&gt;0 -->
<g id="edge15" class="edge">
<title>27&#45;&gt;0</title>
<path fill="none" stroke="grey" stroke-width="2" d="M1544.14,-73.46C1541.06,-72.92 1538,-72.43 1535,-72 1214.06,-25.72 821.06,-19.77 699.57,-19.07"/>
<polygon fill="grey" stroke="grey" stroke-width="2" points="699.34,-15.57 689.32,-19.02 699.3,-22.57 699.34,-15.57"/>
</g>
<!-- 28 -->
<g id="node29" class="node">
<title>28</title>
<path fill="none" stroke="#5692d8" stroke-width="2" d="M1389.5,-180C1389.5,-180 1260.5,-180 1260.5,-180 1254.5,-180 1248.5,-174 1248.5,-168 1248.5,-168 1248.5,-156 1248.5,-156 1248.5,-150 1254.5,-144 1260.5,-144 1260.5,-144 1389.5,-144 1389.5,-144 1395.5,-144 1401.5,-150 1401.5,-156 1401.5,-156 1401.5,-168 1401.5,-168 1401.5,-174 1395.5,-180 1389.5,-180"/>
<text text-anchor="middle" x="1325" y="-159.5" font-family="sans" font-size="10.00">evaluate_consensus_counts</text>
</g>
<!-- 28&#45;&gt;0 -->
<g id="edge21" class="edge">
<title>28&#45;&gt;0</title>
<path fill="none" stroke="grey" stroke-width="2" d="M1401.89,-160.88C1496.05,-158.91 1647.44,-149.21 1683,-108 1693.45,-95.89 1694.02,-83.6 1683,-72 1648.46,-35.62 878.36,-22.16 699.07,-19.51"/>
<polygon fill="grey" stroke="grey" stroke-width="2" points="699.12,-16.01 689.07,-19.37 699.01,-23.01 699.12,-16.01"/>
</g>
<!-- 28&#45;&gt;27 -->
<g id="edge55" class="edge">
<title>28&#45;&gt;27</title>
<path fill="none" stroke="grey" stroke-width="2" d="M1394.11,-143.97C1436.61,-133.49 1491.06,-120.07 1534.51,-109.36"/>
<polygon fill="grey" stroke="grey" stroke-width="2" points="1535.59,-112.7 1544.46,-106.91 1533.91,-105.9 1535.59,-112.7"/>
</g>
<!-- 33 -->
<g id="node34" class="node">
<title>33</title>
<path fill="none" stroke="#5663d8" stroke-width="2" d="M1514,-108C1514,-108 1388,-108 1388,-108 1382,-108 1376,-102 1376,-96 1376,-96 1376,-84 1376,-84 1376,-78 1382,-72 1388,-72 1388,-72 1514,-72 1514,-72 1520,-72 1526,-78 1526,-84 1526,-84 1526,-96 1526,-96 1526,-102 1520,-108 1514,-108"/>
<text text-anchor="middle" x="1451" y="-87.5" font-family="sans" font-size="10.00">plot_consensus_peak_plots</text>
</g>
<!-- 28&#45;&gt;33 -->
<g id="edge72" class="edge">
<title>28&#45;&gt;33</title>
<path fill="none" stroke="grey" stroke-width="2" d="M1355.82,-143.88C1372.45,-134.64 1393.16,-123.13 1411.02,-113.21"/>
<polygon fill="grey" stroke="grey" stroke-width="2" points="1413.02,-116.11 1420.06,-108.19 1409.62,-109.99 1413.02,-116.11"/>
</g>
<!-- 29&#45;&gt;28 -->
<g id="edge56" class="edge">
<title>29&#45;&gt;28</title>
<path fill="none" stroke="grey" stroke-width="2" d="M709.39,-217.31C712.29,-216.84 715.17,-216.41 718,-216 902.17,-189.63 1119.78,-174.47 1237.96,-167.57"/>
<polygon fill="grey" stroke="grey" stroke-width="2" points="1238.25,-171.06 1248.03,-166.99 1237.85,-164.08 1238.25,-171.06"/>
</g>
<!-- 30&#45;&gt;28 -->
<g id="edge57" class="edge">
<title>30&#45;&gt;28</title>
<path fill="none" stroke="grey" stroke-width="2" d="M1018.53,-217.86C1021.73,-217.23 1024.9,-216.6 1028,-216 1098.6,-202.3 1178.91,-188.05 1238.2,-177.78"/>
<polygon fill="grey" stroke="grey" stroke-width="2" points="1239.01,-181.19 1248.27,-176.04 1237.82,-174.29 1239.01,-181.19"/>
</g>
<!-- 31&#45;&gt;28 -->
<g id="edge59" class="edge">
<title>31&#45;&gt;28</title>
<path fill="none" stroke="grey" stroke-width="2" d="M1174.43,-215.97C1202.23,-206.19 1237.34,-193.84 1266.65,-183.52"/>
<polygon fill="grey" stroke="grey" stroke-width="2" points="1268.08,-186.73 1276.36,-180.11 1265.76,-180.13 1268.08,-186.73"/>
</g>
<!-- 32&#45;&gt;28 -->
<g id="edge58" class="edge">
<title>32&#45;&gt;28</title>
<path fill="none" stroke="grey" stroke-width="2" d="M1325,-215.7C1325,-207.98 1325,-198.71 1325,-190.11"/>
<polygon fill="grey" stroke="grey" stroke-width="2" points="1328.5,-190.1 1325,-180.1 1321.5,-190.1 1328.5,-190.1"/>
</g>
<!-- 33&#45;&gt;0 -->
<g id="edge24" class="edge">
<title>33&#45;&gt;0</title>
<path fill="none" stroke="grey" stroke-width="2" d="M1375.97,-73.33C1372.95,-72.86 1369.95,-72.41 1367,-72 1113.1,-36.9 804.31,-23.8 699.13,-20.16"/>
<polygon fill="grey" stroke="grey" stroke-width="2" points="699.13,-16.66 689.02,-19.82 698.9,-23.65 699.13,-16.66"/>
</g>
<!-- 34&#45;&gt;0 -->
<g id="edge20" class="edge">
<title>34&#45;&gt;0</title>
<path fill="none" stroke="grey" stroke-width="2" d="M1236.15,-73.49C1233.4,-72.95 1230.68,-72.45 1228,-72 1030.49,-38.61 790.39,-24.85 699.38,-20.58"/>
<polygon fill="grey" stroke="grey" stroke-width="2" points="699.43,-17.08 689.28,-20.12 699.11,-24.07 699.43,-17.08"/>
</g>
<!-- 35 -->
<g id="node36" class="node">
<title>35</title>
<path fill="none" stroke="#56d8c9" stroke-width="2" d="M913.5,-108C913.5,-108 734.5,-108 734.5,-108 728.5,-108 722.5,-102 722.5,-96 722.5,-96 722.5,-84 722.5,-84 722.5,-78 728.5,-72 734.5,-72 734.5,-72 913.5,-72 913.5,-72 919.5,-72 925.5,-78 925.5,-84 925.5,-84 925.5,-96 925.5,-96 925.5,-102 919.5,-108 913.5,-108"/>
<text text-anchor="middle" x="824" y="-87.5" font-family="sans" font-size="10.00">consensus_standard_intersection_plot</text>
</g>
<!-- 35&#45;&gt;0 -->
<g id="edge16" class="edge">
<title>35&#45;&gt;0</title>
<path fill="none" stroke="grey" stroke-width="2" d="M784.37,-71.88C758.12,-60.53 723.95,-45.77 698.4,-34.73"/>
<polygon fill="grey" stroke="grey" stroke-width="2" points="699.62,-31.44 689.06,-30.69 696.85,-37.87 699.62,-31.44"/>
</g>
<!-- 36&#45;&gt;0 -->
<g id="edge7" class="edge">
<title>36&#45;&gt;0</title>
<path fill="none" stroke="grey" stroke-width="2" d="M767.45,-143.85C749.54,-135.02 729.24,-122.94 714,-108 695.83,-90.18 681.8,-64.7 672.92,-45.56"/>
<polygon fill="grey" stroke="grey" stroke-width="2" points="676.01,-43.91 668.75,-36.21 669.62,-46.76 676.01,-43.91"/>
</g>
<!-- 36&#45;&gt;35 -->
<g id="edge74" class="edge">
<title>36&#45;&gt;35</title>
<path fill="none" stroke="grey" stroke-width="2" d="M812.71,-143.7C814.36,-135.98 816.35,-126.71 818.19,-118.11"/>
<polygon fill="grey" stroke="grey" stroke-width="2" points="821.66,-118.62 820.33,-108.1 814.82,-117.15 821.66,-118.62"/>
</g>
<!-- 37&#45;&gt;0 -->
<g id="edge5" class="edge">
<title>37&#45;&gt;0</title>
<path fill="none" stroke="grey" stroke-width="2" d="M637.91,-71.7C641.55,-63.73 645.95,-54.1 649.99,-45.26"/>
<polygon fill="grey" stroke="grey" stroke-width="2" points="653.21,-46.65 654.18,-36.1 646.84,-43.74 653.21,-46.65"/>
</g>
</g>
</svg>
