<?xml version="1.0" encoding="UTF-8" standalone="no"?>
<!DOCTYPE svg PUBLIC "-//W3C//DTD SVG 1.1//EN"
 "http://www.w3.org/Graphics/SVG/1.1/DTD/svg11.dtd">
<!-- Generated by graphviz version 2.38.0 (20140413.2041)
 -->
<!-- Title: snakemake_dag Pages: 1 -->
<svg width="1814pt" height="836pt"
 viewBox="0.00 0.00 1814.00 836.00" xmlns="http://www.w3.org/2000/svg" xmlns:xlink="http://www.w3.org/1999/xlink">
<g id="graph0" class="graph" transform="scale(1 1) rotate(0) translate(4 832)">
<title>snakemake_dag</title>
<polygon fill="white" stroke="none" points="-4,4 -4,-832 1810,-832 1810,4 -4,4"/>
<!-- 0 -->
<g id="node1" class="node"><title>0</title>
<path fill="none" stroke="#56d8d0" stroke-width="2" d="M849,-36C849,-36 819,-36 819,-36 813,-36 807,-30 807,-24 807,-24 807,-12 807,-12 807,-6 813,-0 819,-0 819,-0 849,-0 849,-0 855,-0 861,-6 861,-12 861,-12 861,-24 861,-24 861,-30 855,-36 849,-36"/>
<text text-anchor="middle" x="834" y="-15.5" font-family="sans" font-size="10.00">all</text>
</g>
<!-- 1 -->
<g id="node2" class="node"><title>1</title>
<path fill="none" stroke="#d8cb56" stroke-width="2" d="M42,-108C42,-108 12,-108 12,-108 6,-108 0,-102 0,-96 0,-96 0,-84 0,-84 0,-78 6,-72 12,-72 12,-72 42,-72 42,-72 48,-72 54,-78 54,-84 54,-84 54,-96 54,-96 54,-102 48,-108 42,-108"/>
<text text-anchor="middle" x="27" y="-87.5" font-family="sans" font-size="10.00">fastqc</text>
</g>
<!-- 1&#45;&gt;0 -->
<g id="edge9" class="edge"><title>1&#45;&gt;0</title>
<path fill="none" stroke="grey" stroke-width="2" d="M54.1204,-74.9117C57.0623,-73.7723 60.0571,-72.7669 63,-72 204.265,-35.19 662.455,-22.664 796.71,-19.7349"/>
<polygon fill="grey" stroke="grey" stroke-width="2" points="796.968,-23.2302 806.892,-19.5177 796.819,-16.2318 796.968,-23.2302"/>
</g>
<!-- 2 -->
<g id="node3" class="node"><title>2</title>
<path fill="none" stroke="#d88d56" stroke-width="2" d="M139.5,-108C139.5,-108 84.5,-108 84.5,-108 78.5,-108 72.5,-102 72.5,-96 72.5,-96 72.5,-84 72.5,-84 72.5,-78 78.5,-72 84.5,-72 84.5,-72 139.5,-72 139.5,-72 145.5,-72 151.5,-78 151.5,-84 151.5,-84 151.5,-96 151.5,-96 151.5,-102 145.5,-108 139.5,-108"/>
<text text-anchor="middle" x="112" y="-87.5" font-family="sans" font-size="10.00">fastq_screen</text>
</g>
<!-- 2&#45;&gt;0 -->
<g id="edge4" class="edge"><title>2&#45;&gt;0</title>
<path fill="none" stroke="grey" stroke-width="2" d="M151.55,-75.4334C156.376,-74.1097 161.273,-72.9194 166,-72 403.132,-25.8822 695.078,-19.7091 796.894,-19.0224"/>
<polygon fill="grey" stroke="grey" stroke-width="2" points="796.998,-22.522 806.979,-18.9685 796.96,-15.5221 796.998,-22.522"/>
</g>
<!-- 3 -->
<g id="node4" class="node"><title>3</title>
<path fill="none" stroke="#59d856" stroke-width="2" d="M883,-612C883,-612 853,-612 853,-612 847,-612 841,-606 841,-600 841,-600 841,-588 841,-588 841,-582 847,-576 853,-576 853,-576 883,-576 883,-576 889,-576 895,-582 895,-588 895,-588 895,-600 895,-600 895,-606 889,-612 883,-612"/>
<text text-anchor="middle" x="868" y="-591.5" font-family="sans" font-size="10.00">banlist</text>
</g>
<!-- 3&#45;&gt;0 -->
<g id="edge17" class="edge"><title>3&#45;&gt;0</title>
<path fill="none" stroke="grey" stroke-width="2" d="M840.745,-592.356C724.47,-589.397 273.511,-575.686 222,-540 186.046,-515.092 180,-494.739 180,-451 180,-451 180,-451 180,-161 180,-116.473 189.01,-96.786 226,-72 273.415,-40.2285 671.736,-24.3933 796.672,-20.1757"/>
<polygon fill="grey" stroke="grey" stroke-width="2" points="797.005,-23.6666 806.884,-19.8364 796.773,-16.6705 797.005,-23.6666"/>
</g>
<!-- 7 -->
<g id="node8" class="node"><title>7</title>
<path fill="none" stroke="#56d0d8" stroke-width="2" d="M273,-540C273,-540 243,-540 243,-540 237,-540 231,-534 231,-528 231,-528 231,-516 231,-516 231,-510 237,-504 243,-504 243,-504 273,-504 273,-504 279,-504 285,-510 285,-516 285,-516 285,-528 285,-528 285,-534 279,-540 273,-540"/>
<text text-anchor="middle" x="258" y="-519.5" font-family="sans" font-size="10.00">tracks</text>
</g>
<!-- 3&#45;&gt;7 -->
<g id="edge35" class="edge"><title>3&#45;&gt;7</title>
<path fill="none" stroke="grey" stroke-width="2" d="M840.725,-591.241C762.572,-585.99 531.222,-568.969 341,-540 325.906,-537.701 309.405,-534.472 295.122,-531.444"/>
<polygon fill="grey" stroke="grey" stroke-width="2" points="295.678,-527.983 285.164,-529.291 294.199,-534.825 295.678,-527.983"/>
</g>
<!-- 8 -->
<g id="node9" class="node"><title>8</title>
<path fill="none" stroke="#97d856" stroke-width="2" d="M433.5,-540C433.5,-540 362.5,-540 362.5,-540 356.5,-540 350.5,-534 350.5,-528 350.5,-528 350.5,-516 350.5,-516 350.5,-510 356.5,-504 362.5,-504 362.5,-504 433.5,-504 433.5,-504 439.5,-504 445.5,-510 445.5,-516 445.5,-516 445.5,-528 445.5,-528 445.5,-534 439.5,-540 433.5,-540"/>
<text text-anchor="middle" x="398" y="-519.5" font-family="sans" font-size="10.00">preseq_lcextrap</text>
</g>
<!-- 3&#45;&gt;8 -->
<g id="edge36" class="edge"><title>3&#45;&gt;8</title>
<path fill="none" stroke="grey" stroke-width="2" d="M840.699,-588.934C766.166,-577.833 557.979,-546.827 455.907,-531.625"/>
<polygon fill="grey" stroke="grey" stroke-width="2" points="456.183,-528.127 445.776,-530.116 455.151,-535.051 456.183,-528.127"/>
</g>
<!-- 9 -->
<g id="node10" class="node"><title>9</title>
<path fill="none" stroke="#d89556" stroke-width="2" d="M369.5,-324C369.5,-324 322.5,-324 322.5,-324 316.5,-324 310.5,-318 310.5,-312 310.5,-312 310.5,-300 310.5,-300 310.5,-294 316.5,-288 322.5,-288 322.5,-288 369.5,-288 369.5,-288 375.5,-288 381.5,-294 381.5,-300 381.5,-300 381.5,-312 381.5,-312 381.5,-318 375.5,-324 369.5,-324"/>
<text text-anchor="middle" x="346" y="-303.5" font-family="sans" font-size="10.00">frip_macs2</text>
</g>
<!-- 3&#45;&gt;9 -->
<g id="edge38" class="edge"><title>3&#45;&gt;9</title>
<path fill="none" stroke="grey" stroke-width="2" d="M840.971,-587.867C804.73,-580.372 738.938,-564.587 687,-540 560.991,-480.348 429.682,-376.899 373.814,-330.594"/>
<polygon fill="grey" stroke="grey" stroke-width="2" points="376.051,-327.902 366.129,-324.188 371.57,-333.279 376.051,-327.902"/>
</g>
<!-- 10 -->
<g id="node11" class="node"><title>10</title>
<path fill="none" stroke="#d8b456" stroke-width="2" d="M650,-396C650,-396 620,-396 620,-396 614,-396 608,-390 608,-384 608,-384 608,-372 608,-372 608,-366 614,-360 620,-360 620,-360 650,-360 650,-360 656,-360 662,-366 662,-372 662,-372 662,-384 662,-384 662,-390 656,-396 650,-396"/>
<text text-anchor="middle" x="635" y="-375.5" font-family="sans" font-size="10.00">macs2</text>
</g>
<!-- 3&#45;&gt;10 -->
<g id="edge39" class="edge"><title>3&#45;&gt;10</title>
<path fill="none" stroke="grey" stroke-width="2" d="M840.905,-589.24C808.946,-583.564 755.779,-570.082 721,-540 678.899,-503.584 654.083,-441.339 642.654,-405.858"/>
<polygon fill="grey" stroke="grey" stroke-width="2" points="645.96,-404.7 639.657,-396.183 639.273,-406.771 645.96,-404.7"/>
</g>
<!-- 11 -->
<g id="node12" class="node"><title>11</title>
<path fill="none" stroke="#56c1d8" stroke-width="2" d="M1050,-468C1050,-468 1020,-468 1020,-468 1014,-468 1008,-462 1008,-456 1008,-456 1008,-444 1008,-444 1008,-438 1014,-432 1020,-432 1020,-432 1050,-432 1050,-432 1056,-432 1062,-438 1062,-444 1062,-444 1062,-456 1062,-456 1062,-462 1056,-468 1050,-468"/>
<text text-anchor="middle" x="1035" y="-447.5" font-family="sans" font-size="10.00">index</text>
</g>
<!-- 3&#45;&gt;11 -->
<g id="edge41" class="edge"><title>3&#45;&gt;11</title>
<path fill="none" stroke="grey" stroke-width="2" d="M895.201,-581.009C914.935,-571.546 941.629,-557.11 962,-540 984.161,-521.386 1004.61,-495.35 1018.19,-476.247"/>
<polygon fill="grey" stroke="grey" stroke-width="2" points="1021.09,-478.214 1023.93,-468.009 1015.34,-474.213 1021.09,-478.214"/>
</g>
<!-- 12 -->
<g id="node13" class="node"><title>12</title>
<path fill="none" stroke="#5682d8" stroke-width="2" d="M597.5,-324C597.5,-324 514.5,-324 514.5,-324 508.5,-324 502.5,-318 502.5,-312 502.5,-312 502.5,-300 502.5,-300 502.5,-294 508.5,-288 514.5,-288 514.5,-288 597.5,-288 597.5,-288 603.5,-288 609.5,-294 609.5,-300 609.5,-300 609.5,-312 609.5,-312 609.5,-318 603.5,-324 597.5,-324"/>
<text text-anchor="middle" x="556" y="-303.5" font-family="sans" font-size="10.00">frip_seacr_relaxed</text>
</g>
<!-- 3&#45;&gt;12 -->
<g id="edge43" class="edge"><title>3&#45;&gt;12</title>
<path fill="none" stroke="grey" stroke-width="2" d="M857.367,-575.857C830.672,-534.004 756.791,-425.272 671,-360 654.01,-347.074 633.362,-336.328 614.276,-327.968"/>
<polygon fill="grey" stroke="grey" stroke-width="2" points="615.628,-324.74 605.055,-324.057 612.894,-331.184 615.628,-324.74"/>
</g>
<!-- 13 -->
<g id="node14" class="node"><title>13</title>
<path fill="none" stroke="#566bd8" stroke-width="2" d="M848.5,-396C848.5,-396 787.5,-396 787.5,-396 781.5,-396 775.5,-390 775.5,-384 775.5,-384 775.5,-372 775.5,-372 775.5,-366 781.5,-360 787.5,-360 787.5,-360 848.5,-360 848.5,-360 854.5,-360 860.5,-366 860.5,-372 860.5,-372 860.5,-384 860.5,-384 860.5,-390 854.5,-396 848.5,-396"/>
<text text-anchor="middle" x="818" y="-375.5" font-family="sans" font-size="10.00">seacr_relaxed</text>
</g>
<!-- 3&#45;&gt;13 -->
<g id="edge45" class="edge"><title>3&#45;&gt;13</title>
<path fill="none" stroke="grey" stroke-width="2" d="M863.507,-575.652C857.309,-551.556 845.895,-506.562 837,-468 832.236,-447.346 827.247,-423.898 823.577,-406.256"/>
<polygon fill="grey" stroke="grey" stroke-width="2" points="826.93,-405.183 821.477,-396.099 820.075,-406.6 826.93,-405.183"/>
</g>
<!-- 16 -->
<g id="node17" class="node"><title>16</title>
<path fill="none" stroke="#d87556" stroke-width="2" d="M941,-540C941,-540 897,-540 897,-540 891,-540 885,-534 885,-528 885,-528 885,-516 885,-516 885,-510 891,-504 897,-504 897,-504 941,-504 941,-504 947,-504 953,-510 953,-516 953,-516 953,-528 953,-528 953,-534 947,-540 941,-540"/>
<text text-anchor="middle" x="919" y="-519.5" font-family="sans" font-size="10.00">name_sort</text>
</g>
<!-- 3&#45;&gt;16 -->
<g id="edge48" class="edge"><title>3&#45;&gt;16</title>
<path fill="none" stroke="grey" stroke-width="2" d="M880.607,-575.697C886.597,-567.474 893.876,-557.483 900.479,-548.421"/>
<polygon fill="grey" stroke="grey" stroke-width="2" points="903.478,-550.248 906.538,-540.104 897.821,-546.126 903.478,-550.248"/>
</g>
<!-- 17 -->
<g id="node18" class="node"><title>17</title>
<path fill="none" stroke="#56d87b" stroke-width="2" d="M1413.5,-324C1413.5,-324 1324.5,-324 1324.5,-324 1318.5,-324 1312.5,-318 1312.5,-312 1312.5,-312 1312.5,-300 1312.5,-300 1312.5,-294 1318.5,-288 1324.5,-288 1324.5,-288 1413.5,-288 1413.5,-288 1419.5,-288 1425.5,-294 1425.5,-300 1425.5,-300 1425.5,-312 1425.5,-312 1425.5,-318 1419.5,-324 1413.5,-324"/>
<text text-anchor="middle" x="1369" y="-303.5" font-family="sans" font-size="10.00">frip_seacr_stringent</text>
</g>
<!-- 3&#45;&gt;17 -->
<g id="edge49" class="edge"><title>3&#45;&gt;17</title>
<path fill="none" stroke="grey" stroke-width="2" d="M895.155,-586.752C968.782,-568.657 1175.38,-510.095 1305,-396 1325.5,-377.954 1343.13,-352.17 1354.66,-332.996"/>
<polygon fill="grey" stroke="grey" stroke-width="2" points="1357.8,-334.576 1359.82,-324.177 1351.75,-331.042 1357.8,-334.576"/>
</g>
<!-- 18 -->
<g id="node19" class="node"><title>18</title>
<path fill="none" stroke="#b6d856" stroke-width="2" d="M1284,-396C1284,-396 1216,-396 1216,-396 1210,-396 1204,-390 1204,-384 1204,-384 1204,-372 1204,-372 1204,-366 1210,-360 1216,-360 1216,-360 1284,-360 1284,-360 1290,-360 1296,-366 1296,-372 1296,-372 1296,-384 1296,-384 1296,-390 1290,-396 1284,-396"/>
<text text-anchor="middle" x="1250" y="-375.5" font-family="sans" font-size="10.00">seacr_stringent</text>
</g>
<!-- 3&#45;&gt;18 -->
<g id="edge52" class="edge"><title>3&#45;&gt;18</title>
<path fill="none" stroke="grey" stroke-width="2" d="M895.391,-582.835C921.106,-572.955 960.39,-556.991 993,-540 1076.74,-496.37 1169.28,-434.857 1217.19,-401.929"/>
<polygon fill="grey" stroke="grey" stroke-width="2" points="1219.36,-404.683 1225.61,-396.124 1215.39,-398.921 1219.36,-404.683"/>
</g>
<!-- 19 -->
<g id="node20" class="node"><title>19</title>
<path fill="none" stroke="#56d89a" stroke-width="2" d="M1512,-324C1512,-324 1456,-324 1456,-324 1450,-324 1444,-318 1444,-312 1444,-312 1444,-300 1444,-300 1444,-294 1450,-288 1456,-288 1456,-288 1512,-288 1512,-288 1518,-288 1524,-294 1524,-300 1524,-300 1524,-312 1524,-312 1524,-318 1518,-324 1512,-324"/>
<text text-anchor="middle" x="1484" y="-303.5" font-family="sans" font-size="10.00">frip_gopeaks</text>
</g>
<!-- 3&#45;&gt;19 -->
<g id="edge55" class="edge"><title>3&#45;&gt;19</title>
<path fill="none" stroke="grey" stroke-width="2" d="M895.051,-589.158C939.427,-582.359 1030.04,-566.382 1103,-540 1246.11,-488.252 1393.73,-378.897 1454.83,-330.683"/>
<polygon fill="grey" stroke="grey" stroke-width="2" points="1457.21,-333.259 1462.86,-324.298 1452.86,-327.778 1457.21,-333.259"/>
</g>
<!-- 20 -->
<g id="node21" class="node"><title>20</title>
<path fill="none" stroke="#569ad8" stroke-width="2" d="M1501,-396C1501,-396 1467,-396 1467,-396 1461,-396 1455,-390 1455,-384 1455,-384 1455,-372 1455,-372 1455,-366 1461,-360 1467,-360 1467,-360 1501,-360 1501,-360 1507,-360 1513,-366 1513,-372 1513,-372 1513,-384 1513,-384 1513,-390 1507,-396 1501,-396"/>
<text text-anchor="middle" x="1484" y="-375.5" font-family="sans" font-size="10.00">gopeaks</text>
</g>
<!-- 3&#45;&gt;20 -->
<g id="edge57" class="edge"><title>3&#45;&gt;20</title>
<path fill="none" stroke="grey" stroke-width="2" d="M895.17,-591.881C998.694,-587.409 1364.75,-569.616 1407,-540 1452.03,-508.437 1471.63,-443.255 1479.42,-406.239"/>
<polygon fill="grey" stroke="grey" stroke-width="2" points="1482.91,-406.647 1481.39,-396.16 1476.04,-405.301 1482.91,-406.647"/>
</g>
<!-- 34 -->
<g id="node35" class="node"><title>34</title>
<path fill="none" stroke="#56d88a" stroke-width="2" d="M1698,-324C1698,-324 1630,-324 1630,-324 1624,-324 1618,-318 1618,-312 1618,-312 1618,-300 1618,-300 1618,-294 1624,-288 1630,-288 1630,-288 1698,-288 1698,-288 1704,-288 1710,-294 1710,-300 1710,-300 1710,-312 1710,-312 1710,-318 1704,-324 1698,-324"/>
<text text-anchor="middle" x="1664" y="-303.5" font-family="sans" font-size="10.00">gopeaks_signal</text>
</g>
<!-- 3&#45;&gt;34 -->
<g id="edge75" class="edge"><title>3&#45;&gt;34</title>
<path fill="none" stroke="grey" stroke-width="2" d="M895.056,-591.781C993.7,-587.138 1333.71,-569.321 1438,-540 1508.03,-520.309 1533.54,-519.423 1585,-468 1623.32,-429.706 1646.05,-369.09 1656.67,-334.187"/>
<polygon fill="grey" stroke="grey" stroke-width="2" points="1660.13,-334.814 1659.58,-324.233 1653.42,-332.848 1660.13,-334.814"/>
</g>
<!-- 4 -->
<g id="node5" class="node"><title>4</title>
<path fill="none" stroke="#56d882" stroke-width="2" d="M886,-684C886,-684 850,-684 850,-684 844,-684 838,-678 838,-672 838,-672 838,-660 838,-660 838,-654 844,-648 850,-648 850,-648 886,-648 886,-648 892,-648 898,-654 898,-660 898,-660 898,-672 898,-672 898,-678 892,-684 886,-684"/>
<text text-anchor="middle" x="868" y="-663.5" font-family="sans" font-size="10.00">markdup</text>
</g>
<!-- 4&#45;&gt;3 -->
<g id="edge32" class="edge"><title>4&#45;&gt;3</title>
<path fill="none" stroke="grey" stroke-width="2" d="M868,-647.697C868,-639.983 868,-630.712 868,-622.112"/>
<polygon fill="grey" stroke="grey" stroke-width="2" points="871.5,-622.104 868,-612.104 864.5,-622.104 871.5,-622.104"/>
</g>
<!-- 5 -->
<g id="node6" class="node"><title>5</title>
<path fill="none" stroke="#d6d856" stroke-width="2" d="M883,-756C883,-756 853,-756 853,-756 847,-756 841,-750 841,-744 841,-744 841,-732 841,-732 841,-726 847,-720 853,-720 853,-720 883,-720 883,-720 889,-720 895,-726 895,-732 895,-732 895,-744 895,-744 895,-750 889,-756 883,-756"/>
<text text-anchor="middle" x="868" y="-735.5" font-family="sans" font-size="10.00">sort</text>
</g>
<!-- 5&#45;&gt;4 -->
<g id="edge33" class="edge"><title>5&#45;&gt;4</title>
<path fill="none" stroke="grey" stroke-width="2" d="M868,-719.697C868,-711.983 868,-702.712 868,-694.112"/>
<polygon fill="grey" stroke="grey" stroke-width="2" points="871.5,-694.104 868,-684.104 864.5,-694.104 871.5,-694.104"/>
</g>
<!-- 6 -->
<g id="node7" class="node"><title>6</title>
<path fill="none" stroke="#68d856" stroke-width="2" d="M884,-828C884,-828 852,-828 852,-828 846,-828 840,-822 840,-816 840,-816 840,-804 840,-804 840,-798 846,-792 852,-792 852,-792 884,-792 884,-792 890,-792 896,-798 896,-804 896,-804 896,-816 896,-816 896,-822 890,-828 884,-828"/>
<text text-anchor="middle" x="868" y="-807.5" font-family="sans" font-size="10.00">bowtie2</text>
</g>
<!-- 6&#45;&gt;5 -->
<g id="edge34" class="edge"><title>6&#45;&gt;5</title>
<path fill="none" stroke="grey" stroke-width="2" d="M868,-791.697C868,-783.983 868,-774.712 868,-766.112"/>
<polygon fill="grey" stroke="grey" stroke-width="2" points="871.5,-766.104 868,-756.104 864.5,-766.104 871.5,-766.104"/>
</g>
<!-- 7&#45;&gt;0 -->
<g id="edge24" class="edge"><title>7&#45;&gt;0</title>
<path fill="none" stroke="grey" stroke-width="2" d="M249.905,-503.949C238.217,-477.72 218,-425.614 218,-379 218,-379 218,-379 218,-161 218,-115.846 229.239,-96.7594 267,-72 311.241,-42.9915 677.866,-25.4409 796.861,-20.4669"/>
<polygon fill="grey" stroke="grey" stroke-width="2" points="797.096,-23.9602 806.943,-20.0509 796.807,-16.9662 797.096,-23.9602"/>
</g>
<!-- 8&#45;&gt;0 -->
<g id="edge15" class="edge"><title>8&#45;&gt;0</title>
<path fill="none" stroke="grey" stroke-width="2" d="M361.062,-503.954C318.988,-481.694 256,-438.444 256,-379 256,-379 256,-379 256,-161 256,-114.027 272.986,-96.6028 313,-72 394.149,-22.1051 691.543,-18.3821 796.786,-18.6736"/>
<polygon fill="grey" stroke="grey" stroke-width="2" points="796.919,-22.1741 806.933,-18.7161 796.948,-15.1741 796.919,-22.1741"/>
</g>
<!-- 9&#45;&gt;0 -->
<g id="edge5" class="edge"><title>9&#45;&gt;0</title>
<path fill="none" stroke="grey" stroke-width="2" d="M331.673,-287.566C324.552,-277.762 316.694,-264.923 313,-252 297.419,-197.499 306.077,-100.396 336,-72 369.303,-40.3966 686.656,-24.8641 796.67,-20.3969"/>
<polygon fill="grey" stroke="grey" stroke-width="2" points="797.099,-23.8827 806.952,-19.9873 796.82,-16.8882 797.099,-23.8827"/>
</g>
<!-- 10&#45;&gt;0 -->
<g id="edge8" class="edge"><title>10&#45;&gt;0</title>
<path fill="none" stroke="grey" stroke-width="2" d="M607.733,-373.471C576.287,-368.052 524.844,-354.853 493,-324 451.619,-283.908 394.014,-115.322 432,-72 455.904,-44.7373 701.704,-27.0286 796.757,-21.1538"/>
<polygon fill="grey" stroke="grey" stroke-width="2" points="797.023,-24.6442 806.792,-20.5431 796.598,-17.6571 797.023,-24.6442"/>
</g>
<!-- 10&#45;&gt;9 -->
<g id="edge37" class="edge"><title>10&#45;&gt;9</title>
<path fill="none" stroke="grey" stroke-width="2" d="M607.946,-367.637C599.678,-364.961 590.518,-362.182 582,-360 500.433,-339.104 477.382,-345.603 396,-324 394.532,-323.61 393.045,-323.2 391.547,-322.773"/>
<polygon fill="grey" stroke="grey" stroke-width="2" points="392.183,-319.309 381.598,-319.764 390.157,-326.009 392.183,-319.309"/>
</g>
<!-- 22 -->
<g id="node23" class="node"><title>22</title>
<path fill="none" stroke="#d85656" stroke-width="2" d="M982,-324C982,-324 938,-324 938,-324 932,-324 926,-318 926,-312 926,-312 926,-300 926,-300 926,-294 932,-288 938,-288 938,-288 982,-288 982,-288 988,-288 994,-294 994,-300 994,-300 994,-312 994,-312 994,-318 988,-324 982,-324"/>
<text text-anchor="middle" x="960" y="-303.5" font-family="sans" font-size="10.00">consensus</text>
</g>
<!-- 10&#45;&gt;22 -->
<g id="edge61" class="edge"><title>10&#45;&gt;22</title>
<path fill="none" stroke="grey" stroke-width="2" d="M662.15,-371.152C718.308,-359.057 847.672,-331.194 915.952,-316.487"/>
<polygon fill="grey" stroke="grey" stroke-width="2" points="916.927,-319.858 925.966,-314.33 915.453,-313.014 916.927,-319.858"/>
</g>
<!-- 35 -->
<g id="node36" class="node"><title>35</title>
<path fill="none" stroke="#afd856" stroke-width="2" d="M407.5,-252C407.5,-252 334.5,-252 334.5,-252 328.5,-252 322.5,-246 322.5,-240 322.5,-240 322.5,-228 322.5,-228 322.5,-222 328.5,-216 334.5,-216 334.5,-216 407.5,-216 407.5,-216 413.5,-216 419.5,-222 419.5,-228 419.5,-228 419.5,-240 419.5,-240 419.5,-246 413.5,-252 407.5,-252"/>
<text text-anchor="middle" x="371" y="-231.5" font-family="sans" font-size="10.00">evaluate_macs2</text>
</g>
<!-- 10&#45;&gt;35 -->
<g id="edge76" class="edge"><title>10&#45;&gt;35</title>
<path fill="none" stroke="grey" stroke-width="2" d="M607.878,-367.888C599.608,-365.221 590.464,-362.384 582,-360 516.839,-341.65 489.997,-362.04 434,-324 411.019,-308.388 393.682,-281.427 383.071,-261.26"/>
<polygon fill="grey" stroke="grey" stroke-width="2" points="386.163,-259.619 378.54,-252.261 379.911,-262.767 386.163,-259.619"/>
</g>
<!-- 11&#45;&gt;10 -->
<g id="edge40" class="edge"><title>11&#45;&gt;10</title>
<path fill="none" stroke="grey" stroke-width="2" d="M1007.82,-435.14C1004.89,-433.956 1001.91,-432.878 999,-432 968.076,-422.675 758.696,-394.988 672.233,-383.785"/>
<polygon fill="grey" stroke="grey" stroke-width="2" points="672.444,-380.283 662.078,-382.472 671.546,-387.225 672.444,-380.283"/>
</g>
<!-- 11&#45;&gt;20 -->
<g id="edge58" class="edge"><title>11&#45;&gt;20</title>
<path fill="none" stroke="grey" stroke-width="2" d="M1062.08,-444.779C1138.4,-432.88 1355.53,-399.028 1444.87,-385.1"/>
<polygon fill="grey" stroke="grey" stroke-width="2" points="1445.52,-388.541 1454.87,-383.542 1444.45,-381.624 1445.52,-388.541"/>
</g>
<!-- 12&#45;&gt;0 -->
<g id="edge28" class="edge"><title>12&#45;&gt;0</title>
<path fill="none" stroke="grey" stroke-width="2" d="M536.879,-287.895C492.942,-246.59 392.944,-139.815 452,-72 496.479,-20.9237 709.232,-17.4758 796.512,-18.2761"/>
<polygon fill="grey" stroke="grey" stroke-width="2" points="796.717,-21.7786 806.757,-18.3952 796.799,-14.7791 796.717,-21.7786"/>
</g>
<!-- 13&#45;&gt;0 -->
<g id="edge30" class="edge"><title>13&#45;&gt;0</title>
<path fill="none" stroke="grey" stroke-width="2" d="M801.141,-359.841C761.397,-319.447 664.529,-221.338 656,-216 614.895,-190.271 586.603,-214.964 553,-180 519.056,-144.681 499.487,-109.504 531,-72 564.563,-32.0568 723.403,-22.2117 796.734,-19.7889"/>
<polygon fill="grey" stroke="grey" stroke-width="2" points="797.017,-23.2821 806.908,-19.4826 796.807,-16.2852 797.017,-23.2821"/>
</g>
<!-- 13&#45;&gt;12 -->
<g id="edge42" class="edge"><title>13&#45;&gt;12</title>
<path fill="none" stroke="grey" stroke-width="2" d="M775.322,-365.597C732.997,-354.289 667.649,-336.83 619.284,-323.908"/>
<polygon fill="grey" stroke="grey" stroke-width="2" points="620.108,-320.505 609.543,-321.305 618.301,-327.268 620.108,-320.505"/>
</g>
<!-- 13&#45;&gt;22 -->
<g id="edge60" class="edge"><title>13&#45;&gt;22</title>
<path fill="none" stroke="grey" stroke-width="2" d="M852.737,-359.876C871.962,-350.399 896.035,-338.532 916.502,-328.443"/>
<polygon fill="grey" stroke="grey" stroke-width="2" points="918.2,-331.508 925.622,-323.947 915.105,-325.229 918.2,-331.508"/>
</g>
<!-- 36 -->
<g id="node37" class="node"><title>36</title>
<path fill="none" stroke="#ced856" stroke-width="2" d="M635.5,-252C635.5,-252 526.5,-252 526.5,-252 520.5,-252 514.5,-246 514.5,-240 514.5,-240 514.5,-228 514.5,-228 514.5,-222 520.5,-216 526.5,-216 526.5,-216 635.5,-216 635.5,-216 641.5,-216 647.5,-222 647.5,-228 647.5,-228 647.5,-240 647.5,-240 647.5,-246 641.5,-252 635.5,-252"/>
<text text-anchor="middle" x="581" y="-231.5" font-family="sans" font-size="10.00">evaluate_seacr_relaxed</text>
</g>
<!-- 13&#45;&gt;36 -->
<g id="edge77" class="edge"><title>13&#45;&gt;36</title>
<path fill="none" stroke="grey" stroke-width="2" d="M775.23,-365.09C735.895,-353.67 680.902,-336.383 662,-324 636.272,-307.145 613.348,-280.244 598.512,-260.424"/>
<polygon fill="grey" stroke="grey" stroke-width="2" points="601.194,-258.163 592.473,-252.146 595.539,-262.288 601.194,-258.163"/>
</g>
<!-- 14 -->
<g id="node15" class="node"><title>14</title>
<path fill="none" stroke="#d8ac56" stroke-width="2" d="M898,-468C898,-468 858,-468 858,-468 852,-468 846,-462 846,-456 846,-456 846,-444 846,-444 846,-438 852,-432 858,-432 858,-432 898,-432 898,-432 904,-432 910,-438 910,-444 910,-444 910,-456 910,-456 910,-462 904,-468 898,-468"/>
<text text-anchor="middle" x="878" y="-447.5" font-family="sans" font-size="10.00">get_seacr</text>
</g>
<!-- 14&#45;&gt;0 -->
<g id="edge6" class="edge"><title>14&#45;&gt;0</title>
<path fill="none" stroke="grey" stroke-width="2" d="M910.193,-435.847C982.401,-404.338 1156.18,-316.837 1223,-180 1230.02,-165.623 1224.75,-159.904 1223,-144 1219.42,-111.415 1231.06,-94.2637 1207,-72 1158.72,-27.3222 956.029,-20.1331 871.386,-19.1035"/>
<polygon fill="grey" stroke="grey" stroke-width="2" points="871.229,-15.6019 861.195,-19.0027 871.159,-22.6015 871.229,-15.6019"/>
</g>
<!-- 14&#45;&gt;13 -->
<g id="edge46" class="edge"><title>14&#45;&gt;13</title>
<path fill="none" stroke="grey" stroke-width="2" d="M863.169,-431.697C855.975,-423.305 847.203,-413.07 839.31,-403.861"/>
<polygon fill="grey" stroke="grey" stroke-width="2" points="841.826,-401.419 832.661,-396.104 836.511,-405.975 841.826,-401.419"/>
</g>
<!-- 14&#45;&gt;18 -->
<g id="edge53" class="edge"><title>14&#45;&gt;18</title>
<path fill="none" stroke="grey" stroke-width="2" d="M910.406,-434.666C913.281,-433.669 916.172,-432.76 919,-432 1036.34,-400.463 1071.02,-420.625 1190,-396 1191.28,-395.735 1192.58,-395.456 1193.88,-395.167"/>
<polygon fill="grey" stroke="grey" stroke-width="2" points="1195.06,-398.484 1203.98,-392.763 1193.44,-391.675 1195.06,-398.484"/>
</g>
<!-- 15 -->
<g id="node16" class="node"><title>15</title>
<path fill="none" stroke="#61d856" stroke-width="2" d="M978,-468C978,-468 940,-468 940,-468 934,-468 928,-462 928,-456 928,-456 928,-444 928,-444 928,-438 934,-432 940,-432 940,-432 978,-432 978,-432 984,-432 990,-438 990,-444 990,-444 990,-456 990,-456 990,-462 984,-468 978,-468"/>
<text text-anchor="middle" x="959" y="-447.5" font-family="sans" font-size="10.00">bedgraph</text>
</g>
<!-- 15&#45;&gt;13 -->
<g id="edge44" class="edge"><title>15&#45;&gt;13</title>
<path fill="none" stroke="grey" stroke-width="2" d="M927.708,-433.465C908.272,-423.816 883.008,-411.273 861.624,-400.657"/>
<polygon fill="grey" stroke="grey" stroke-width="2" points="862.93,-397.398 852.416,-396.086 859.817,-403.668 862.93,-397.398"/>
</g>
<!-- 15&#45;&gt;18 -->
<g id="edge51" class="edge"><title>15&#45;&gt;18</title>
<path fill="none" stroke="grey" stroke-width="2" d="M990.206,-434.984C993.149,-433.891 996.111,-432.875 999,-432 1081.67,-406.961 1105.91,-415.794 1190,-396 1191.27,-395.7 1192.56,-395.39 1193.86,-395.073"/>
<polygon fill="grey" stroke="grey" stroke-width="2" points="1195.1,-398.37 1203.92,-392.507 1193.37,-391.587 1195.1,-398.37"/>
</g>
<!-- 16&#45;&gt;15 -->
<g id="edge47" class="edge"><title>16&#45;&gt;15</title>
<path fill="none" stroke="grey" stroke-width="2" d="M928.888,-503.697C933.489,-495.644 939.06,-485.894 944.153,-476.982"/>
<polygon fill="grey" stroke="grey" stroke-width="2" points="947.304,-478.523 949.226,-468.104 941.226,-475.05 947.304,-478.523"/>
</g>
<!-- 17&#45;&gt;0 -->
<g id="edge19" class="edge"><title>17&#45;&gt;0</title>
<path fill="none" stroke="grey" stroke-width="2" d="M1390.61,-287.885C1424.93,-258.516 1485.29,-196.6 1457,-144 1429.5,-92.869 1402.67,-91.5399 1348,-72 1259.88,-40.5073 974.044,-25.1459 871.251,-20.5383"/>
<polygon fill="grey" stroke="grey" stroke-width="2" points="871.187,-17.0321 861.043,-20.0893 870.879,-24.0254 871.187,-17.0321"/>
</g>
<!-- 18&#45;&gt;0 -->
<g id="edge12" class="edge"><title>18&#45;&gt;0</title>
<path fill="none" stroke="grey" stroke-width="2" d="M1254.74,-359.732C1270.19,-301.687 1316.04,-114.847 1278,-72 1251.12,-41.7217 973.199,-25.5954 871.239,-20.6631"/>
<polygon fill="grey" stroke="grey" stroke-width="2" points="871.249,-17.1597 861.094,-20.1813 870.916,-24.1518 871.249,-17.1597"/>
</g>
<!-- 18&#45;&gt;17 -->
<g id="edge50" class="edge"><title>18&#45;&gt;17</title>
<path fill="none" stroke="grey" stroke-width="2" d="M1279.11,-359.876C1294.67,-350.724 1314.02,-339.342 1330.78,-329.485"/>
<polygon fill="grey" stroke="grey" stroke-width="2" points="1332.93,-332.277 1339.78,-324.19 1329.38,-326.243 1332.93,-332.277"/>
</g>
<!-- 18&#45;&gt;22 -->
<g id="edge62" class="edge"><title>18&#45;&gt;22</title>
<path fill="none" stroke="grey" stroke-width="2" d="M1203.73,-365.831C1148.89,-352.595 1058.19,-330.7 1004.25,-317.682"/>
<polygon fill="grey" stroke="grey" stroke-width="2" points="1004.84,-314.224 994.302,-315.28 1003.2,-321.029 1004.84,-314.224"/>
</g>
<!-- 37 -->
<g id="node38" class="node"><title>37</title>
<path fill="none" stroke="#d86e56" stroke-width="2" d="M1436,-180C1436,-180 1320,-180 1320,-180 1314,-180 1308,-174 1308,-168 1308,-168 1308,-156 1308,-156 1308,-150 1314,-144 1320,-144 1320,-144 1436,-144 1436,-144 1442,-144 1448,-150 1448,-156 1448,-156 1448,-168 1448,-168 1448,-174 1442,-180 1436,-180"/>
<text text-anchor="middle" x="1378" y="-159.5" font-family="sans" font-size="10.00">evaluate_seacr_stringent</text>
</g>
<!-- 18&#45;&gt;37 -->
<g id="edge78" class="edge"><title>18&#45;&gt;37</title>
<path fill="none" stroke="grey" stroke-width="2" d="M1260.14,-359.928C1270.8,-342.004 1288.05,-313.007 1303,-288 1323.47,-253.756 1347.17,-214.287 1362.36,-189.013"/>
<polygon fill="grey" stroke="grey" stroke-width="2" points="1365.4,-190.754 1367.55,-180.38 1359.4,-187.147 1365.4,-190.754"/>
</g>
<!-- 19&#45;&gt;0 -->
<g id="edge20" class="edge"><title>19&#45;&gt;0</title>
<path fill="none" stroke="grey" stroke-width="2" d="M1486.91,-287.613C1491.21,-257.036 1496.6,-192.299 1475,-144 1456.52,-102.69 1443.96,-91.2405 1403,-72 1308.07,-27.4084 981.826,-20.3213 871.104,-19.2052"/>
<polygon fill="grey" stroke="grey" stroke-width="2" points="871.108,-15.7052 861.077,-19.1148 871.045,-22.7049 871.108,-15.7052"/>
</g>
<!-- 20&#45;&gt;0 -->
<g id="edge27" class="edge"><title>20&#45;&gt;0</title>
<path fill="none" stroke="grey" stroke-width="2" d="M1504.44,-359.794C1514.51,-350.246 1525.96,-337.573 1533,-324 1551.62,-288.091 1552,-275.447 1552,-235 1552,-235 1552,-235 1552,-161 1552,-20.9196 1019.41,-16.7993 871.627,-18.3524"/>
<polygon fill="grey" stroke="grey" stroke-width="2" points="871.227,-14.8569 861.27,-18.4776 871.311,-21.8564 871.227,-14.8569"/>
</g>
<!-- 20&#45;&gt;19 -->
<g id="edge54" class="edge"><title>20&#45;&gt;19</title>
<path fill="none" stroke="grey" stroke-width="2" d="M1484,-359.697C1484,-351.983 1484,-342.712 1484,-334.112"/>
<polygon fill="grey" stroke="grey" stroke-width="2" points="1487.5,-334.104 1484,-324.104 1480.5,-334.104 1487.5,-334.104"/>
</g>
<!-- 20&#45;&gt;22 -->
<g id="edge59" class="edge"><title>20&#45;&gt;22</title>
<path fill="none" stroke="grey" stroke-width="2" d="M1454.7,-373.087C1367.4,-361.423 1108.57,-326.847 1004.28,-312.916"/>
<polygon fill="grey" stroke="grey" stroke-width="2" points="1004.47,-309.41 994.098,-311.555 1003.55,-316.348 1004.47,-309.41"/>
</g>
<!-- 20&#45;&gt;34 -->
<g id="edge74" class="edge"><title>20&#45;&gt;34</title>
<path fill="none" stroke="grey" stroke-width="2" d="M1513.32,-365.597C1539.59,-355.381 1578.78,-340.143 1610.6,-327.767"/>
<polygon fill="grey" stroke="grey" stroke-width="2" points="1612.17,-330.913 1620.22,-324.026 1609.63,-324.389 1612.17,-330.913"/>
</g>
<!-- 21 -->
<g id="node22" class="node"><title>21</title>
<path fill="none" stroke="#d8c356" stroke-width="2" d="M1564.5,-468C1564.5,-468 1501.5,-468 1501.5,-468 1495.5,-468 1489.5,-462 1489.5,-456 1489.5,-456 1489.5,-444 1489.5,-444 1489.5,-438 1495.5,-432 1501.5,-432 1501.5,-432 1564.5,-432 1564.5,-432 1570.5,-432 1576.5,-438 1576.5,-444 1576.5,-444 1576.5,-456 1576.5,-456 1576.5,-462 1570.5,-468 1564.5,-468"/>
<text text-anchor="middle" x="1533" y="-447.5" font-family="sans" font-size="10.00">wget_gopeaks</text>
</g>
<!-- 21&#45;&gt;0 -->
<g id="edge7" class="edge"><title>21&#45;&gt;0</title>
<path fill="none" stroke="grey" stroke-width="2" d="M1544.81,-431.958C1561.51,-406.158 1590,-355.082 1590,-307 1590,-307 1590,-307 1590,-161 1590,-103.144 1547.91,-95.4015 1495,-72 1381.95,-22.0025 993.454,-18.5911 871.165,-18.7902"/>
<polygon fill="grey" stroke="grey" stroke-width="2" points="871.155,-15.2901 861.164,-18.8158 871.173,-22.2901 871.155,-15.2901"/>
</g>
<!-- 21&#45;&gt;20 -->
<g id="edge56" class="edge"><title>21&#45;&gt;20</title>
<path fill="none" stroke="grey" stroke-width="2" d="M1520.89,-431.697C1515.13,-423.474 1508.14,-413.483 1501.79,-404.421"/>
<polygon fill="grey" stroke="grey" stroke-width="2" points="1504.58,-402.29 1495.97,-396.104 1498.84,-406.304 1504.58,-402.29"/>
</g>
<!-- 22&#45;&gt;0 -->
<g id="edge1" class="edge"><title>22&#45;&gt;0</title>
<path fill="none" stroke="grey" stroke-width="2" d="M985.38,-287.955C996.715,-278.786 1008.88,-266.4 1015,-252 1042.02,-188.446 981.665,-101.024 953,-72 930.622,-49.3423 896.86,-35.5751 871.006,-27.7731"/>
<polygon fill="grey" stroke="grey" stroke-width="2" points="871.75,-24.3459 861.174,-24.9746 869.834,-31.0785 871.75,-24.3459"/>
</g>
<!-- 23 -->
<g id="node24" class="node"><title>23</title>
<path fill="none" stroke="#56d8c1" stroke-width="2" d="M1124,-180C1124,-180 1046,-180 1046,-180 1040,-180 1034,-174 1034,-168 1034,-168 1034,-156 1034,-156 1034,-150 1040,-144 1046,-144 1046,-144 1124,-144 1124,-144 1130,-144 1136,-150 1136,-156 1136,-156 1136,-168 1136,-168 1136,-174 1130,-180 1124,-180"/>
<text text-anchor="middle" x="1085" y="-159.5" font-family="sans" font-size="10.00">consensus_signal</text>
</g>
<!-- 22&#45;&gt;23 -->
<g id="edge63" class="edge"><title>22&#45;&gt;23</title>
<path fill="none" stroke="grey" stroke-width="2" d="M994.113,-290.834C1012.12,-281.919 1033.45,-268.887 1048,-252 1063.39,-234.14 1073.05,-208.977 1078.62,-189.962"/>
<polygon fill="grey" stroke="grey" stroke-width="2" points="1082.05,-190.685 1081.31,-180.116 1075.3,-188.843 1082.05,-190.685"/>
</g>
<!-- 24 -->
<g id="node25" class="node"><title>24</title>
<path fill="none" stroke="#56d8d8" stroke-width="2" d="M1202,-180C1202,-180 1166,-180 1166,-180 1160,-180 1154,-174 1154,-168 1154,-168 1154,-156 1154,-156 1154,-150 1160,-144 1166,-144 1166,-144 1202,-144 1202,-144 1208,-144 1214,-150 1214,-156 1214,-156 1214,-168 1214,-168 1214,-174 1208,-180 1202,-180"/>
<text text-anchor="middle" x="1184" y="-159.5" font-family="sans" font-size="10.00">heatmap</text>
</g>
<!-- 22&#45;&gt;24 -->
<g id="edge64" class="edge"><title>22&#45;&gt;24</title>
<path fill="none" stroke="grey" stroke-width="2" d="M994.218,-291.467C1017.21,-281.773 1047.8,-267.698 1073,-252 1103.99,-232.689 1136.21,-205.999 1157.9,-186.894"/>
<polygon fill="grey" stroke="grey" stroke-width="2" points="1160.25,-189.489 1165.39,-180.226 1155.6,-184.259 1160.25,-189.489"/>
</g>
<!-- 25 -->
<g id="node26" class="node"><title>25</title>
<path fill="none" stroke="#9fd856" stroke-width="2" d="M755.5,-252C755.5,-252 716.5,-252 716.5,-252 710.5,-252 704.5,-246 704.5,-240 704.5,-240 704.5,-228 704.5,-228 704.5,-222 710.5,-216 716.5,-216 716.5,-216 755.5,-216 755.5,-216 761.5,-216 767.5,-222 767.5,-228 767.5,-228 767.5,-240 767.5,-240 767.5,-246 761.5,-252 755.5,-252"/>
<text text-anchor="middle" x="736" y="-231.5" font-family="sans" font-size="10.00">intervene</text>
</g>
<!-- 22&#45;&gt;25 -->
<g id="edge65" class="edge"><title>22&#45;&gt;25</title>
<path fill="none" stroke="grey" stroke-width="2" d="M925.671,-295.49C889.672,-285.352 831.555,-268.515 782,-252 780.39,-251.463 778.751,-250.907 777.098,-250.338"/>
<polygon fill="grey" stroke="grey" stroke-width="2" points="778.174,-247.006 767.579,-246.976 775.843,-253.606 778.174,-247.006"/>
</g>
<!-- 26 -->
<g id="node27" class="node"><title>26</title>
<path fill="none" stroke="#d85e56" stroke-width="2" d="M840,-180C840,-180 752,-180 752,-180 746,-180 740,-174 740,-168 740,-168 740,-156 740,-156 740,-150 746,-144 752,-144 752,-144 840,-144 840,-144 846,-144 852,-150 852,-156 852,-156 852,-168 852,-168 852,-174 846,-180 840,-180"/>
<text text-anchor="middle" x="796" y="-159.5" font-family="sans" font-size="10.00">promoter_fragment</text>
</g>
<!-- 22&#45;&gt;26 -->
<g id="edge66" class="edge"><title>22&#45;&gt;26</title>
<path fill="none" stroke="grey" stroke-width="2" d="M925.987,-301.887C892.736,-296.982 843.127,-284.372 815,-252 800.311,-235.094 796.064,-209.623 795.198,-190.256"/>
<polygon fill="grey" stroke="grey" stroke-width="2" points="798.697,-190.153 795.02,-180.217 791.698,-190.277 798.697,-190.153"/>
</g>
<!-- 28 -->
<g id="node29" class="node"><title>28</title>
<path fill="none" stroke="#56d86b" stroke-width="2" d="M883.5,-252C883.5,-252 836.5,-252 836.5,-252 830.5,-252 824.5,-246 824.5,-240 824.5,-240 824.5,-228 824.5,-228 824.5,-222 830.5,-216 836.5,-216 836.5,-216 883.5,-216 883.5,-216 889.5,-216 895.5,-222 895.5,-228 895.5,-228 895.5,-240 895.5,-240 895.5,-246 889.5,-252 883.5,-252"/>
<text text-anchor="middle" x="860" y="-231.5" font-family="sans" font-size="10.00">peak_basic</text>
</g>
<!-- 22&#45;&gt;28 -->
<g id="edge68" class="edge"><title>22&#45;&gt;28</title>
<path fill="none" stroke="grey" stroke-width="2" d="M935.537,-287.876C922.704,-278.893 906.804,-267.763 892.906,-258.034"/>
<polygon fill="grey" stroke="grey" stroke-width="2" points="894.756,-255.057 884.557,-252.19 890.742,-260.792 894.756,-255.057"/>
</g>
<!-- 32 -->
<g id="node33" class="node"><title>32</title>
<path fill="none" stroke="#56a9d8" stroke-width="2" d="M994,-252C994,-252 926,-252 926,-252 920,-252 914,-246 914,-240 914,-240 914,-228 914,-228 914,-222 920,-216 926,-216 926,-216 994,-216 994,-216 1000,-216 1006,-222 1006,-228 1006,-228 1006,-240 1006,-240 1006,-246 1000,-252 994,-252"/>
<text text-anchor="middle" x="960" y="-231.5" font-family="sans" font-size="10.00">peak_distances</text>
</g>
<!-- 22&#45;&gt;32 -->
<g id="edge72" class="edge"><title>22&#45;&gt;32</title>
<path fill="none" stroke="grey" stroke-width="2" d="M960,-287.697C960,-279.983 960,-270.712 960,-262.112"/>
<polygon fill="grey" stroke="grey" stroke-width="2" points="963.5,-262.104 960,-252.104 956.5,-262.104 963.5,-262.104"/>
</g>
<!-- 23&#45;&gt;0 -->
<g id="edge22" class="edge"><title>23&#45;&gt;0</title>
<path fill="none" stroke="grey" stroke-width="2" d="M1129.07,-143.983C1144.55,-135.62 1160.26,-123.855 1169,-108 1176.73,-93.9892 1179.39,-84.1656 1169,-72 1131.03,-27.5452 950.383,-20.167 871.264,-19.0937"/>
<polygon fill="grey" stroke="grey" stroke-width="2" points="871.281,-15.5937 861.243,-18.9844 871.205,-22.5933 871.281,-15.5937"/>
</g>
<!-- 29 -->
<g id="node30" class="node"><title>29</title>
<path fill="none" stroke="#56d8a2" stroke-width="2" d="M1148,-108C1148,-108 1046,-108 1046,-108 1040,-108 1034,-102 1034,-96 1034,-96 1034,-84 1034,-84 1034,-78 1040,-72 1046,-72 1046,-72 1148,-72 1148,-72 1154,-72 1160,-78 1160,-84 1160,-84 1160,-96 1160,-96 1160,-102 1154,-108 1148,-108"/>
<text text-anchor="middle" x="1097" y="-87.5" font-family="sans" font-size="10.00">consensus_signal_plot</text>
</g>
<!-- 23&#45;&gt;29 -->
<g id="edge69" class="edge"><title>23&#45;&gt;29</title>
<path fill="none" stroke="grey" stroke-width="2" d="M1087.97,-143.697C1089.29,-135.983 1090.88,-126.712 1092.35,-118.112"/>
<polygon fill="grey" stroke="grey" stroke-width="2" points="1095.83,-118.552 1094.07,-108.104 1088.93,-117.369 1095.83,-118.552"/>
</g>
<!-- 24&#45;&gt;0 -->
<g id="edge23" class="edge"><title>24&#45;&gt;0</title>
<path fill="none" stroke="grey" stroke-width="2" d="M1190.83,-143.657C1197.36,-123.86 1203.95,-91.682 1187,-72 1146.52,-24.9863 953.424,-19.0926 871.204,-18.7562"/>
<polygon fill="grey" stroke="grey" stroke-width="2" points="871.059,-15.2561 861.053,-18.741 871.048,-22.2561 871.059,-15.2561"/>
</g>
<!-- 25&#45;&gt;0 -->
<g id="edge13" class="edge"><title>25&#45;&gt;0</title>
<path fill="none" stroke="grey" stroke-width="2" d="M732.042,-215.758C725.802,-183.971 717.401,-115.42 749,-72 761.174,-55.2717 780.39,-42.6451 797.474,-33.9208"/>
<polygon fill="grey" stroke="grey" stroke-width="2" points="799.203,-36.9729 806.687,-29.4741 796.16,-30.6687 799.203,-36.9729"/>
</g>
<!-- 27 -->
<g id="node28" class="node"><title>27</title>
<path fill="none" stroke="#567bd8" stroke-width="2" d="M648,-180C648,-180 574,-180 574,-180 568,-180 562,-174 562,-168 562,-168 562,-156 562,-156 562,-150 568,-144 574,-144 574,-144 648,-144 648,-144 654,-144 660,-150 660,-156 660,-156 660,-168 660,-168 660,-174 654,-180 648,-180"/>
<text text-anchor="middle" x="611" y="-159.5" font-family="sans" font-size="10.00">exclusive_signal</text>
</g>
<!-- 25&#45;&gt;27 -->
<g id="edge67" class="edge"><title>25&#45;&gt;27</title>
<path fill="none" stroke="grey" stroke-width="2" d="M705.422,-215.876C688.926,-206.639 668.376,-195.131 650.664,-185.212"/>
<polygon fill="grey" stroke="grey" stroke-width="2" points="652.131,-182.022 641.696,-180.19 648.711,-188.13 652.131,-182.022"/>
</g>
<!-- 26&#45;&gt;0 -->
<g id="edge2" class="edge"><title>26&#45;&gt;0</title>
<path fill="none" stroke="grey" stroke-width="2" d="M779.233,-143.934C763.515,-125.766 744.205,-96.3396 757,-72 765.711,-55.4288 782.207,-43.0301 797.703,-34.4084"/>
<polygon fill="grey" stroke="grey" stroke-width="2" points="799.383,-37.48 806.645,-29.7656 796.157,-31.2676 799.383,-37.48"/>
</g>
<!-- 31 -->
<g id="node32" class="node"><title>31</title>
<path fill="none" stroke="#56b9d8" stroke-width="2" d="M890,-108C890,-108 778,-108 778,-108 772,-108 766,-102 766,-96 766,-96 766,-84 766,-84 766,-78 772,-72 778,-72 778,-72 890,-72 890,-72 896,-72 902,-78 902,-84 902,-84 902,-96 902,-96 902,-102 896,-108 890,-108"/>
<text text-anchor="middle" x="834" y="-87.5" font-family="sans" font-size="10.00">promoter_fragment_plot</text>
</g>
<!-- 26&#45;&gt;31 -->
<g id="edge71" class="edge"><title>26&#45;&gt;31</title>
<path fill="none" stroke="grey" stroke-width="2" d="M805.393,-143.697C809.765,-135.644 815.057,-125.894 819.895,-116.982"/>
<polygon fill="grey" stroke="grey" stroke-width="2" points="823.02,-118.563 824.715,-108.104 816.868,-115.223 823.02,-118.563"/>
</g>
<!-- 27&#45;&gt;0 -->
<g id="edge29" class="edge"><title>27&#45;&gt;0</title>
<path fill="none" stroke="grey" stroke-width="2" d="M576.318,-143.834C562.693,-135.127 548.532,-123.151 541,-108 533.877,-93.6729 530.743,-84.2794 541,-72 573.153,-33.5095 724.896,-22.9188 796.467,-20.047"/>
<polygon fill="grey" stroke="grey" stroke-width="2" points="796.965,-23.5311 806.828,-19.663 796.705,-16.5359 796.965,-23.5311"/>
</g>
<!-- 30 -->
<g id="node31" class="node"><title>30</title>
<path fill="none" stroke="#8fd856" stroke-width="2" d="M660,-108C660,-108 562,-108 562,-108 556,-108 550,-102 550,-96 550,-96 550,-84 550,-84 550,-78 556,-72 562,-72 562,-72 660,-72 660,-72 666,-72 672,-78 672,-84 672,-84 672,-96 672,-96 672,-102 666,-108 660,-108"/>
<text text-anchor="middle" x="611" y="-87.5" font-family="sans" font-size="10.00">exclusive_signal_plot</text>
</g>
<!-- 27&#45;&gt;30 -->
<g id="edge70" class="edge"><title>27&#45;&gt;30</title>
<path fill="none" stroke="grey" stroke-width="2" d="M611,-143.697C611,-135.983 611,-126.712 611,-118.112"/>
<polygon fill="grey" stroke="grey" stroke-width="2" points="614.5,-118.104 611,-108.104 607.5,-118.104 614.5,-118.104"/>
</g>
<!-- 28&#45;&gt;0 -->
<g id="edge18" class="edge"><title>28&#45;&gt;0</title>
<path fill="none" stroke="grey" stroke-width="2" d="M873.95,-215.768C896.699,-185.43 936.785,-121.051 911,-72 902.289,-55.4288 885.793,-43.0301 870.297,-34.4084"/>
<polygon fill="grey" stroke="grey" stroke-width="2" points="871.843,-31.2676 861.355,-29.7656 868.617,-37.48 871.843,-31.2676"/>
</g>
<!-- 29&#45;&gt;0 -->
<g id="edge21" class="edge"><title>29&#45;&gt;0</title>
<path fill="none" stroke="grey" stroke-width="2" d="M1033.67,-72.1442C982.839,-58.615 913.224,-40.0863 871.05,-28.8613"/>
<polygon fill="grey" stroke="grey" stroke-width="2" points="871.768,-25.4305 861.204,-26.2406 869.967,-32.195 871.768,-25.4305"/>
</g>
<!-- 30&#45;&gt;0 -->
<g id="edge11" class="edge"><title>30&#45;&gt;0</title>
<path fill="none" stroke="grey" stroke-width="2" d="M665.267,-71.9656C706.276,-59.0926 761.458,-41.7711 797.373,-30.4973"/>
<polygon fill="grey" stroke="grey" stroke-width="2" points="798.471,-33.821 806.964,-27.4867 796.375,-27.1423 798.471,-33.821"/>
</g>
<!-- 31&#45;&gt;0 -->
<g id="edge25" class="edge"><title>31&#45;&gt;0</title>
<path fill="none" stroke="grey" stroke-width="2" d="M834,-71.6966C834,-63.9827 834,-54.7125 834,-46.1124"/>
<polygon fill="grey" stroke="grey" stroke-width="2" points="837.5,-46.1043 834,-36.1043 830.5,-46.1044 837.5,-46.1043"/>
</g>
<!-- 32&#45;&gt;0 -->
<g id="edge26" class="edge"><title>32&#45;&gt;0</title>
<path fill="none" stroke="grey" stroke-width="2" d="M961.316,-215.896C962.847,-184.337 961.87,-116.146 930,-72 915.57,-52.0118 891.175,-38.6841 870.589,-30.3929"/>
<polygon fill="grey" stroke="grey" stroke-width="2" points="871.741,-27.0868 861.149,-26.8263 869.267,-33.6349 871.741,-27.0868"/>
</g>
<!-- 33 -->
<g id="node34" class="node"><title>33</title>
<path fill="none" stroke="#5663d8" stroke-width="2" d="M1712,-252C1712,-252 1630,-252 1630,-252 1624,-252 1618,-246 1618,-240 1618,-240 1618,-228 1618,-228 1618,-222 1624,-216 1630,-216 1630,-216 1712,-216 1712,-216 1718,-216 1724,-222 1724,-228 1724,-228 1724,-240 1724,-240 1724,-246 1718,-252 1712,-252"/>
<text text-anchor="middle" x="1671" y="-231.5" font-family="sans" font-size="10.00">evaluate_gopeaks</text>
</g>
<!-- 33&#45;&gt;0 -->
<g id="edge31" class="edge"><title>33&#45;&gt;0</title>
<path fill="none" stroke="grey" stroke-width="2" d="M1669.57,-215.797C1665.73,-181.821 1651.96,-106.426 1604,-72 1544.06,-28.9772 1017.36,-20.7533 871.371,-19.2951"/>
<polygon fill="grey" stroke="grey" stroke-width="2" points="871.173,-15.7932 861.14,-19.1979 871.106,-22.7929 871.173,-15.7932"/>
</g>
<!-- 34&#45;&gt;33 -->
<g id="edge73" class="edge"><title>34&#45;&gt;33</title>
<path fill="none" stroke="grey" stroke-width="2" d="M1665.73,-287.697C1666.5,-279.983 1667.43,-270.712 1668.29,-262.112"/>
<polygon fill="grey" stroke="grey" stroke-width="2" points="1671.78,-262.403 1669.29,-252.104 1664.81,-261.706 1671.78,-262.403"/>
</g>
<!-- 35&#45;&gt;0 -->
<g id="edge14" class="edge"><title>35&#45;&gt;0</title>
<path fill="none" stroke="grey" stroke-width="2" d="M362.156,-215.882C346.739,-183.376 319.862,-112.367 356,-72 385.306,-39.2646 689.577,-24.53 796.831,-20.3257"/>
<polygon fill="grey" stroke="grey" stroke-width="2" points="797.015,-23.8214 806.873,-19.9405 796.746,-16.8265 797.015,-23.8214"/>
</g>
<!-- 36&#45;&gt;0 -->
<g id="edge10" class="edge"><title>36&#45;&gt;0</title>
<path fill="none" stroke="grey" stroke-width="2" d="M541.212,-215.864C524.972,-207.162 507.186,-195.182 495,-180 464.16,-141.577 437.769,-109.264 470,-72 512.016,-23.4228 712.729,-18.4621 796.813,-18.5664"/>
<polygon fill="grey" stroke="grey" stroke-width="2" points="796.928,-22.0668 806.941,-18.6046 796.954,-15.0668 796.928,-22.0668"/>
</g>
<!-- 37&#45;&gt;0 -->
<g id="edge3" class="edge"><title>37&#45;&gt;0</title>
<path fill="none" stroke="grey" stroke-width="2" d="M1371.35,-143.884C1362.26,-123.03 1343.85,-88.5392 1316,-72 1240.93,-27.4125 971.031,-20.2845 871.344,-19.1846"/>
<polygon fill="grey" stroke="grey" stroke-width="2" points="871.175,-15.6829 861.142,-19.0869 871.108,-22.6826 871.175,-15.6829"/>
</g>
<!-- 38 -->
<g id="node39" class="node"><title>38</title>
<path fill="none" stroke="#c6d856" stroke-width="2" d="M1794,-108C1794,-108 1668,-108 1668,-108 1662,-108 1656,-102 1656,-96 1656,-96 1656,-84 1656,-84 1656,-78 1662,-72 1668,-72 1668,-72 1794,-72 1794,-72 1800,-72 1806,-78 1806,-84 1806,-84 1806,-96 1806,-96 1806,-102 1800,-108 1794,-108"/>
<text text-anchor="middle" x="1731" y="-87.5" font-family="sans" font-size="10.00">evaluate_consensus_signal</text>
</g>
<!-- 38&#45;&gt;0 -->
<g id="edge16" class="edge"><title>38&#45;&gt;0</title>
<path fill="none" stroke="grey" stroke-width="2" d="M1655.84,-73.9692C1651.17,-73.2438 1646.53,-72.5783 1642,-72 1346.54,-34.2374 986.65,-22.6777 871.39,-19.815"/>
<polygon fill="grey" stroke="grey" stroke-width="2" points="871.402,-16.3144 861.32,-19.5718 871.233,-23.3123 871.402,-16.3144"/>
</g>
</g>
</svg>
